<?xml version="1.0" encoding="utf-8"?>
<!-- Generator: Adobe Illustrator 18.1.0, SVG Export Plug-In . SVG Version: 6.00 Build 0)  -->
<!DOCTYPE svg PUBLIC "-//W3C//DTD SVG 1.1//EN" "http://www.w3.org/Graphics/SVG/1.1/DTD/svg11.dtd">
<svg version="1.1" id="Layer_1" xmlns="http://www.w3.org/2000/svg" xmlns:xlink="http://www.w3.org/1999/xlink" x="0px" y="0px"
	 width="261px" height="41px" viewBox="0 0 261 41" enable-background="new 0 0 261 41" xml:space="preserve">
<rect x="0.5" y="0.5" fill="#1D4376" stroke="#1D4376" stroke-width="1.0463" stroke-miterlimit="10" width="260" height="40"/>
<g>
	<path fill="#FFFFFF" d="M57.3,18.8c0,0.8,0,1.5,0,2.1s0,1.1-0.1,1.7s-0.1,1-0.2,1.4c-0.1,0.3-0.2,0.7-0.3,1s-0.3,0.6-0.4,0.8
		c-0.1,0.2-0.4,0.3-0.7,0.5c-0.3,0.2-0.6,0.3-0.9,0.4c-0.3,0.1-0.7,0.1-1.2,0.2c-0.5,0.1-1,0.1-1.4,0.1c-0.5,0-1.1,0-1.8,0H47V13.1
		h4.8c0.8,0,1.4,0,2,0.1s1,0.2,1.4,0.4s0.8,0.4,1,0.7s0.5,0.6,0.6,1.1c0.2,0.4,0.3,0.9,0.3,1.5C57.3,17.3,57.3,18,57.3,18.8z
		 M55.4,18.8c0-0.6,0-1,0-1.2c0-0.3,0-0.6-0.1-0.9c0-0.4-0.1-0.6-0.2-0.8s-0.2-0.3-0.3-0.5s-0.3-0.4-0.5-0.4
		c-0.2-0.1-0.5-0.1-0.8-0.2s-0.7-0.1-1.1-0.2c-0.4,0-0.9,0-1.5,0h-1.9v11h2.2c0.5,0,0.9,0,1.2,0c0.3,0,0.6,0,1-0.1
		c0.3,0,0.6-0.1,0.8-0.2s0.3-0.2,0.5-0.3c0.2-0.2,0.3-0.3,0.4-0.5c0.1-0.2,0.1-0.5,0.2-0.8c0.1-0.3,0.1-0.7,0.1-1.1
		c0-0.4,0-0.8,0-1.4V18.8z"/>
	<path fill="#FFFFFF" d="M69.1,22.8c0,0.4,0,0.8,0,1.1c0,0.3-0.1,0.6-0.1,0.9c-0.1,0.3-0.1,0.5-0.2,0.7s-0.2,0.4-0.3,0.5
		c-0.1,0.2-0.3,0.3-0.4,0.4c-0.1,0.1-0.3,0.2-0.5,0.3c-0.2,0.1-0.4,0.1-0.6,0.2c-0.2,0-0.4,0.1-0.7,0.1c-0.3,0-0.6,0-0.8,0.1
		c-0.3,0-0.6,0-1,0c-0.7,0-1.4,0-1.9-0.1c-0.5,0-0.9-0.1-1.3-0.3c-0.3-0.1-0.6-0.3-0.8-0.4s-0.3-0.4-0.5-0.7c-0.1-0.3-0.2-0.6-0.2-1
		c0-0.3-0.1-0.7-0.1-1.3l1.7-0.3c0,0.1,0,0.3,0.1,0.6c0,0.4,0.1,0.7,0.1,0.8c0,0.2,0.1,0.3,0.2,0.5c0.1,0.2,0.3,0.3,0.5,0.4
		s0.5,0.1,0.8,0.2c0.3,0,0.8,0.1,1.4,0.1c0.5,0,0.9,0,1.2,0c0.3,0,0.6-0.1,0.8-0.2c0.2-0.1,0.4-0.2,0.5-0.3c0.1-0.1,0.2-0.3,0.3-0.5
		c0.1-0.2,0.1-0.4,0.1-0.6s0-0.5,0-0.9c0-0.8-0.1-1.4-0.1-1.7s-0.3-0.5-0.5-0.6L62,20.1c-0.8-0.1-1.4-0.4-1.7-0.9
		c-0.3-0.5-0.5-1.2-0.5-2.3c0-0.6,0-1.1,0.1-1.5s0.2-0.8,0.3-1.1c0.1-0.3,0.3-0.6,0.5-0.7s0.5-0.3,0.8-0.5c0.3-0.1,0.7-0.2,1.2-0.2
		c0.4,0,0.9-0.1,1.5-0.1c0.5,0,0.9,0,1.3,0c0.4,0,0.7,0.1,1,0.1s0.6,0.1,0.8,0.2c0.2,0.1,0.4,0.2,0.6,0.4c0.2,0.2,0.3,0.4,0.4,0.6
		c0.1,0.2,0.2,0.5,0.2,0.8s0.1,0.7,0.1,1l-1.7,0.4c-0.1-0.7-0.1-1.1-0.1-1.2c-0.1-0.3-0.3-0.5-0.5-0.6c-0.3-0.1-1-0.2-1.9-0.2
		c-0.5,0-1,0-1.3,0s-0.6,0.1-0.9,0.1c-0.2,0.1-0.4,0.1-0.5,0.3c-0.1,0.1-0.2,0.2-0.2,0.4c0,0.1-0.1,0.3-0.1,0.5v1.6
		c0,0.6,0.3,0.9,0.8,1l3.3,0.6c0.3,0,0.6,0.1,0.7,0.1c0.2,0,0.4,0.1,0.6,0.1c0.2,0.1,0.4,0.1,0.6,0.2c0.1,0.1,0.3,0.2,0.5,0.3
		c0.2,0.1,0.3,0.2,0.4,0.4c0.1,0.1,0.2,0.3,0.3,0.5c0.1,0.2,0.2,0.4,0.2,0.6c0,0.2,0.1,0.5,0.1,0.8C69.1,22.2,69.1,22.5,69.1,22.8z"
		/>
	<path fill="#FFFFFF" d="M81,17.6c0,0.6,0,1.1-0.1,1.5s-0.1,0.8-0.2,1.1c-0.1,0.3-0.2,0.6-0.4,0.8c-0.2,0.2-0.4,0.4-0.6,0.5
		c-0.2,0.1-0.4,0.2-0.7,0.3c-0.3,0.1-0.5,0.1-0.8,0.2c-0.3,0-0.6,0-0.9,0h-3.7v4.8h-1.9V13.1h5c0.6,0,1.1,0,1.5,0.1
		c0.4,0,0.8,0.1,1.1,0.3c0.3,0.1,0.6,0.3,0.8,0.5s0.4,0.5,0.5,0.8c0.1,0.3,0.3,0.7,0.3,1.2C81,16.4,81,16.9,81,17.6z M79.2,17.5
		c0-0.4,0-0.8,0-1.1c0-0.3-0.1-0.5-0.1-0.8c-0.1-0.2-0.1-0.4-0.2-0.6c-0.1-0.1-0.2-0.2-0.3-0.3c-0.1-0.1-0.3-0.2-0.5-0.2
		c-0.2,0-0.4,0-0.7,0h-3.7v6.2h3.3c0.5,0,0.9,0,1.2-0.1c0.3-0.1,0.5-0.2,0.7-0.4c0.2-0.2,0.3-0.4,0.3-0.7c0.1-0.3,0.1-0.6,0.1-1
		c0-0.1,0-0.3,0-0.5C79.2,17.8,79.2,17.6,79.2,17.5z"/>
	<path fill="#FFFFFF" d="M93,16.9c0,1.2-0.2,2.1-0.7,2.6c-0.4,0.6-1.1,0.9-1.9,1.1c1.2,0.2,1.9,1,2.1,2.3l0.7,4.1h-2
		c0-0.3-0.1-0.7-0.2-1.2c-0.1-0.5-0.1-1-0.2-1.4c-0.1-0.4-0.1-0.8-0.2-1.2s-0.2-0.8-0.4-1.1c-0.2-0.3-0.3-0.5-0.5-0.6
		c-0.3-0.1-0.9-0.2-1.6-0.2h-2.9v5.7h-1.9V13.1h4.2c0.4,0,0.8,0,1.1,0s0.6,0,1,0.1c0.3,0,0.6,0.1,0.9,0.1c0.2,0.1,0.5,0.1,0.7,0.2
		s0.4,0.2,0.6,0.3c0.2,0.1,0.3,0.3,0.5,0.5c0.1,0.2,0.3,0.4,0.3,0.6s0.1,0.5,0.2,0.8C93,16.1,93,16.5,93,16.9z M91.2,17.6v-1.3
		c0-0.2,0-0.4,0-0.6c0-0.1,0-0.3-0.1-0.4c0-0.2-0.1-0.3-0.2-0.3c-0.1-0.1-0.2-0.2-0.3-0.2c-0.1-0.1-0.3-0.1-0.5-0.2
		c-0.2,0-0.4-0.1-0.7-0.1c-0.3,0-0.6,0-1,0h-3.1v5.2h3.2c0.5,0,0.9,0,1.2-0.1c0.3,0,0.6-0.1,0.8-0.2c0.2-0.1,0.3-0.2,0.4-0.4
		s0.2-0.4,0.2-0.6C91.2,18.2,91.2,18,91.2,17.6z"/>
	<path fill="#FFFFFF" d="M103.6,21.7c-0.7,0.1-1.2,0.1-1.4,0.1h-5.1c0,0.9,0,1.9,0.1,3c0,0.4,0.2,0.7,0.5,0.8c0.3,0.1,1,0.2,1.9,0.2
		c0.4,0,0.7,0,0.9,0c0.3,0,0.5-0.1,0.6-0.1c0.2-0.1,0.3-0.1,0.4-0.2c0.1-0.1,0.2-0.2,0.2-0.3c0-0.1,0.1-0.3,0.1-0.4
		c0-0.1,0-0.2,0-0.4c0-0.2,0-0.4,0-0.5l1.4,0.3c0,0.4,0,0.8-0.1,1.1c0,0.3-0.1,0.6-0.3,0.8c-0.1,0.2-0.3,0.4-0.4,0.5
		c-0.2,0.1-0.4,0.2-0.6,0.3c-0.3,0.1-0.6,0.1-0.9,0.2c-0.3,0-0.7,0-1.2,0c-0.6,0-1.2,0-1.6-0.1s-0.8-0.2-1.2-0.3
		c-0.3-0.1-0.6-0.3-0.8-0.5s-0.4-0.5-0.5-0.7c-0.1-0.2-0.2-0.5-0.3-1c-0.1-0.4-0.1-0.8-0.1-1.1c0-0.3,0-0.8,0-1.4c0-0.9,0-1.5,0-2
		c0-0.5,0.1-1,0.2-1.4c0.1-0.5,0.2-0.8,0.4-1c0.2-0.2,0.4-0.4,0.7-0.6s0.7-0.3,1.2-0.4c0.4-0.1,1-0.1,1.7-0.1c0.5,0,0.9,0,1.2,0
		s0.7,0.1,1,0.2c0.3,0.1,0.5,0.2,0.7,0.3c0.2,0.1,0.4,0.3,0.5,0.5c0.1,0.2,0.3,0.4,0.3,0.7c0.1,0.2,0.1,0.5,0.2,0.9
		c0,0.4,0.1,0.8,0.1,1.2C103.6,20.6,103.6,21.1,103.6,21.7z M97.2,20.8h4.6c0-0.8,0-1.5-0.1-2.2c0-0.4-0.2-0.6-0.5-0.8
		c-0.3-0.1-0.8-0.2-1.6-0.2c-0.9,0-1.4,0-1.7,0.1c-0.1,0-0.2,0.1-0.3,0.2c-0.1,0.1-0.1,0.2-0.2,0.3c0,0.1-0.1,0.3-0.1,0.4
		c0,0.1,0,0.3-0.1,0.5s0,0.4,0,0.5c0,0.1,0,0.3,0,0.6S97.2,20.7,97.2,20.8z"/>
	<path fill="#FFFFFF" d="M108,26.9h-1.8V13.1L108,13V26.9z"/>
	<path fill="#FFFFFF" d="M118.4,26.9h-1.4l-0.3-1.5c-0.2,0.6-0.5,1.1-1,1.3c-0.5,0.2-1.2,0.3-2.1,0.3c-0.6,0-1.1-0.1-1.5-0.2
		c-0.4-0.1-0.7-0.3-0.9-0.6c-0.2-0.3-0.4-0.6-0.5-1c-0.1-0.4-0.1-0.9-0.1-1.6c0-0.3,0.1-0.6,0.2-0.8c0.1-0.2,0.2-0.4,0.4-0.6
		c0.2-0.2,0.4-0.3,0.7-0.4c0.3-0.1,0.6-0.2,0.9-0.3c0.3-0.1,0.7-0.1,1.1-0.2c0.4,0,0.9-0.1,1.3-0.1c0.4,0,0.9,0,1.5,0v-2.8
		c0-0.3-0.1-0.5-0.4-0.7c-0.3-0.1-0.8-0.2-1.6-0.2c-0.5,0-0.9,0-1.2,0c-0.3,0-0.5,0.1-0.6,0.2c-0.1,0.1-0.2,0.2-0.2,0.4
		c0,0.1,0,0.3,0,0.7c0,0.1,0,0.2,0,0.3l-1.4-0.1c0-0.1,0-0.2,0-0.4c0-0.4,0.1-0.8,0.2-1.1c0.1-0.3,0.3-0.5,0.5-0.7
		c0.2-0.2,0.5-0.3,0.8-0.4c0.3-0.1,0.7-0.2,1-0.2c0.3,0,0.7,0,1.2,0c0.7,0,1.3,0.1,1.8,0.2c0.5,0.1,0.8,0.3,1.1,0.6
		c0.3,0.3,0.5,0.7,0.6,1.1c0.1,0.5,0.2,1.1,0.2,1.8V26.9z M116.6,24v-1.6c-1.2,0-2.2,0-2.8,0.1s-1.1,0.2-1.3,0.4s-0.3,0.4-0.3,0.7
		c0,0,0,0,0,0.1c0,0.9,0.1,1.5,0.2,1.8c0.2,0.2,0.6,0.3,1.4,0.3c0.7,0,1.2-0.1,1.6-0.2s0.7-0.4,0.9-0.6
		C116.4,24.7,116.5,24.3,116.6,24z"/>
	<path fill="#FFFFFF" d="M125.2,25.6l0,1.3c-0.5,0.1-1,0.1-1.4,0.1c-0.5,0-0.8,0-1.1-0.1c-0.3-0.1-0.5-0.3-0.7-0.5s-0.3-0.5-0.3-0.7
		s-0.1-0.6-0.1-1v-6.9h-1.4v-1h1.4v-2.9l1.8-0.1v3h1.9v1h-1.9v6.3c0,0.7,0,1.1,0.1,1.3c0.1,0.2,0.2,0.3,0.5,0.3
		C124.3,25.7,124.7,25.6,125.2,25.6z"/>
	<path fill="#FFFFFF" d="M135.6,21.7c-0.7,0.1-1.2,0.1-1.4,0.1h-5.1c0,0.9,0,1.9,0.1,3c0,0.4,0.2,0.7,0.5,0.8c0.3,0.1,1,0.2,1.9,0.2
		c0.4,0,0.7,0,0.9,0c0.3,0,0.5-0.1,0.6-0.1c0.2-0.1,0.3-0.1,0.4-0.2c0.1-0.1,0.2-0.2,0.2-0.3c0-0.1,0.1-0.3,0.1-0.4
		c0-0.1,0-0.2,0-0.4c0-0.2,0-0.4,0-0.5l1.4,0.3c0,0.4,0,0.8-0.1,1.1c0,0.3-0.1,0.6-0.3,0.8c-0.1,0.2-0.3,0.4-0.4,0.5
		c-0.2,0.1-0.4,0.2-0.7,0.3S133.4,27,133,27c-0.3,0-0.7,0-1.2,0c-0.6,0-1.2,0-1.6-0.1s-0.8-0.2-1.2-0.3c-0.3-0.1-0.6-0.3-0.8-0.5
		c-0.2-0.2-0.4-0.5-0.5-0.7c-0.1-0.2-0.2-0.5-0.3-1s-0.1-0.8-0.1-1.1c0-0.3,0-0.8,0-1.4c0-0.9,0-1.5,0-2s0.1-1,0.2-1.4
		c0.1-0.5,0.2-0.8,0.4-1c0.2-0.2,0.4-0.4,0.7-0.6c0.3-0.2,0.7-0.3,1.2-0.4c0.4-0.1,1-0.1,1.7-0.1c0.5,0,0.9,0,1.2,0
		c0.3,0,0.7,0.1,1,0.2c0.3,0.1,0.5,0.2,0.7,0.3s0.4,0.3,0.5,0.5c0.1,0.2,0.3,0.4,0.3,0.7c0.1,0.2,0.1,0.5,0.2,0.9
		c0,0.4,0.1,0.8,0.1,1.2C135.6,20.6,135.6,21.1,135.6,21.7z M129.2,20.8h4.6c0-0.8,0-1.5-0.1-2.2c0-0.4-0.2-0.6-0.5-0.8
		c-0.3-0.1-0.8-0.2-1.6-0.2c-0.9,0-1.4,0-1.7,0.1c-0.1,0-0.2,0.1-0.3,0.2c-0.1,0.1-0.1,0.2-0.2,0.3c0,0.1-0.1,0.3-0.1,0.4
		c0,0.1,0,0.3-0.1,0.5c0,0.2,0,0.4,0,0.5c0,0.1,0,0.3,0,0.6S129.2,20.7,129.2,20.8z"/>
	<path fill="#FFFFFF" d="M146.2,26.9h-1.7l-0.2-1.3c-0.4,0.9-1.4,1.4-3,1.4c-0.4,0-0.8,0-1.1-0.1c-0.3-0.1-0.6-0.2-0.9-0.3
		c-0.2-0.1-0.5-0.3-0.6-0.4c-0.2-0.1-0.3-0.4-0.4-0.6c-0.1-0.3-0.2-0.5-0.3-0.8c-0.1-0.2-0.1-0.5-0.1-0.9s0-0.8-0.1-1.1s0-0.7,0-1.2
		c0-0.5,0-0.9,0-1.3c0-0.4,0-0.7,0.1-1.1c0-0.4,0.1-0.7,0.2-0.9c0.1-0.2,0.2-0.5,0.3-0.7s0.3-0.4,0.5-0.6c0.2-0.1,0.4-0.3,0.7-0.4
		c0.3-0.1,0.5-0.2,0.9-0.2c0.3,0,0.7-0.1,1.1-0.1c0.8,0,1.4,0.1,1.9,0.3s0.8,0.6,1,1v-5l1.8-0.1V26.9z M144.3,24.5v-5.4
		c0-0.5-0.2-0.9-0.5-1.1c-0.3-0.2-1-0.3-1.9-0.3c-0.7,0-1.3,0.1-1.6,0.2c-0.3,0.1-0.5,0.3-0.6,0.8c-0.1,0.4-0.1,1-0.1,1.7
		c0,1,0,2.5,0.1,4.4c0,0.4,0.2,0.7,0.5,0.8c0.3,0.1,0.9,0.2,1.8,0.2c0.9,0,1.5-0.1,1.8-0.3C144.1,25.3,144.3,25,144.3,24.5z"/>
	<path fill="#FFFFFF" d="M151.2,25.8c0,0.4-0.1,0.8-0.4,1c-0.3,0.2-0.6,0.4-0.9,0.4c-0.4,0-0.7-0.1-0.9-0.4c-0.3-0.2-0.4-0.6-0.4-1
		c0-0.4,0.1-0.8,0.4-1c0.3-0.2,0.5-0.4,0.9-0.4c0.4,0,0.7,0.1,0.9,0.4C151.1,25.1,151.2,25.4,151.2,25.8z"/>
	<path fill="#FFFFFF" d="M161.4,19.6l-1.5,0.3l-0.2-1.3c0-0.3-0.1-0.5-0.2-0.6c-0.2-0.2-0.6-0.3-1.3-0.3c-0.2,0-0.4,0-0.6,0
		c-0.8,0-1.4,0-1.7,0.1c-0.3,0-0.5,0.3-0.6,0.8s-0.2,1.1-0.2,1.9l0,1.6c0,0.2,0,0.5,0,0.9c0,0.5,0,0.9,0,1.1c0,0.2,0,0.4,0.1,0.7
		s0.1,0.4,0.2,0.5c0.1,0.1,0.2,0.1,0.4,0.2c0.2,0.1,0.4,0.1,0.6,0.1c0.2,0,0.6,0,1,0c0.3,0,0.6,0,0.9,0c0.2,0,0.5-0.1,0.6-0.1
		c0.2,0,0.3-0.1,0.4-0.2c0.1-0.1,0.2-0.2,0.3-0.2c0.1-0.1,0.1-0.2,0.1-0.3c0-0.1,0.1-0.3,0.1-0.4c0-0.1,0-0.3,0-0.5
		c0-0.2,0-0.4,0-0.5l1.5,0.3c0,0.5-0.1,0.9-0.1,1.2c0,0.3-0.1,0.6-0.2,0.8s-0.2,0.5-0.4,0.6s-0.4,0.3-0.7,0.4s-0.6,0.2-1,0.2
		c-0.4,0-0.9,0.1-1.4,0.1c-0.4,0-0.8,0-1.1,0c-0.3,0-0.6-0.1-0.9-0.2c-0.3-0.1-0.5-0.2-0.7-0.2s-0.4-0.2-0.5-0.4
		c-0.2-0.2-0.3-0.3-0.4-0.5c-0.1-0.1-0.2-0.3-0.3-0.6s-0.1-0.5-0.2-0.7c0-0.2-0.1-0.5-0.1-0.9s0-0.8,0-1.1c0-0.3,0-0.7,0-1.3
		c0-0.5,0-0.9,0-1.3s0.1-0.7,0.1-1s0.1-0.6,0.2-0.8c0.1-0.2,0.2-0.4,0.4-0.6c0.2-0.2,0.3-0.3,0.5-0.5c0.2-0.1,0.4-0.2,0.7-0.3
		c0.3-0.1,0.6-0.1,0.9-0.2c0.3,0,0.7,0,1.2,0c0.6,0,1.1,0,1.5,0.1s0.8,0.2,1.1,0.3s0.6,0.3,0.7,0.6s0.3,0.6,0.4,0.9
		C161.3,18.7,161.4,19.1,161.4,19.6z"/>
	<path fill="#FFFFFF" d="M167.7,27c-0.7,0-1.3,0-1.7-0.1s-0.9-0.2-1.2-0.4c-0.3-0.2-0.6-0.4-0.8-0.6c-0.2-0.2-0.3-0.6-0.4-1
		c-0.1-0.5-0.2-0.9-0.2-1.4c0-0.5,0-1.1,0-1.9c0-0.6,0-1.1,0-1.5c0-0.4,0.1-0.8,0.1-1.2s0.1-0.7,0.2-0.9c0.1-0.2,0.2-0.5,0.4-0.7
		c0.2-0.2,0.3-0.4,0.5-0.5s0.5-0.2,0.8-0.3c0.3-0.1,0.6-0.1,1-0.2c0.4,0,0.8,0,1.3,0c0.5,0,0.9,0,1.3,0c0.4,0,0.7,0.1,1,0.2
		s0.6,0.2,0.8,0.3c0.2,0.1,0.4,0.3,0.5,0.5c0.2,0.2,0.3,0.4,0.4,0.7c0.1,0.2,0.2,0.6,0.2,0.9s0.1,0.8,0.1,1.2s0,0.9,0,1.5
		c0,0.8,0,1.4,0,1.9c0,0.5-0.1,0.9-0.2,1.4c-0.1,0.5-0.2,0.8-0.4,1c-0.2,0.2-0.4,0.4-0.8,0.6s-0.7,0.3-1.2,0.4S168.4,27,167.7,27z
		 M167.7,25.8c0.9,0,1.5-0.1,1.8-0.2s0.5-0.3,0.5-0.7c0.1-0.9,0.1-1.9,0.1-3.1c0-0.4,0-0.9,0-1.6c0-0.7,0-1.2,0-1.6
		c0-0.1,0-0.2-0.1-0.3c0-0.1-0.1-0.2-0.2-0.2c-0.1-0.1-0.2-0.1-0.2-0.2c-0.1,0-0.2-0.1-0.3-0.1c-0.1,0-0.3,0-0.4-0.1s-0.2,0-0.4,0
		s-0.3,0-0.4,0c-0.1,0-0.2,0-0.4,0s-0.3,0-0.4,0c-0.1,0-0.2,0-0.4,0c-0.2,0-0.3,0-0.4,0s-0.2,0-0.4,0.1s-0.2,0.1-0.3,0.1
		c-0.1,0-0.2,0.1-0.2,0.2c-0.1,0.1-0.1,0.1-0.2,0.2c0,0.1-0.1,0.2-0.1,0.3c0,0.3,0,0.9,0,1.6c0,0.7,0,1.3,0,1.6c0,1.2,0,2.2,0.1,3.1
		c0,0.3,0.2,0.6,0.5,0.7C166.2,25.7,166.8,25.8,167.7,25.8z"/>
	<path fill="#FFFFFF" d="M188,26.9h-1.8v-6.2c0-0.7,0-1.2,0-1.6c0-0.2,0-0.4,0-0.5c0-0.1-0.1-0.3-0.2-0.4c-0.1-0.1-0.3-0.3-0.5-0.3
		c-0.2-0.1-0.6-0.1-0.9-0.1c-0.4,0-0.8,0-1,0.1c-0.3,0.1-0.5,0.1-0.7,0.2c-0.2,0.1-0.3,0.2-0.4,0.4c-0.1,0.2-0.2,0.3-0.2,0.5
		c0,0.2,0,0.4,0,0.7c0,0.1,0,0.4,0,0.7c0,0.3,0,0.6,0,0.8v5.7h-1.8v-6.5c0,0,0-0.1,0-0.1c0-0.4,0-0.7,0-0.9c0-0.2,0-0.4-0.1-0.6
		c0-0.2-0.1-0.4-0.2-0.5c-0.1-0.1-0.2-0.2-0.4-0.3c-0.2-0.1-0.4-0.2-0.6-0.2c-0.2,0-0.5,0-0.9,0c-0.2,0-0.4,0-0.6,0
		c-0.2,0-0.4,0.1-0.6,0.1c-0.2,0.1-0.3,0.2-0.5,0.3c-0.1,0.1-0.2,0.3-0.2,0.4c-0.1,0.8-0.1,1.7-0.1,2.7v5.6h-1.8V16.7h1.7l0.2,1.1
		c0.2-0.5,0.6-0.9,1.1-1.1s1.1-0.3,1.8-0.3c0.7,0,1.3,0.1,1.7,0.3c0.4,0.2,0.7,0.6,0.9,1.1c0.5-1,1.5-1.4,2.9-1.4
		c0.5,0,0.9,0,1.2,0.1c0.3,0.1,0.6,0.1,0.9,0.3c0.3,0.1,0.5,0.3,0.6,0.5c0.2,0.2,0.3,0.5,0.4,0.8s0.2,0.7,0.2,1.1s0.1,0.9,0.1,1.5
		V26.9z"/>
</g>
<g>
</g>
<g>
	<circle fill="#2BAA58" cx="24" cy="19.5" r="13.7"/>
	<path fill="#FFFFFF" d="M42,20.9c-1.2-0.6-1.7-0.2-2.5,0.6c-1.6,1.6-3,0.3-4.4-0.6c-1.1-0.7-2.2-1.3-3.2,0
		c-0.6,0.8-1.1,1.7-1.5,2.7c-0.3,0.7,0,0-0.5-0.4c-0.4-0.3-0.6-0.8-0.8-1.2c-0.7-1.3-1.2-2.7-1.6-4c-0.4-1.1-0.9-2.2-1.2-3.3
		c-0.4-1.3-0.7-2.9-1.6-3.8c-2.2-2.2-4.5,7.9-4.6,8.8c-0.2,0.9-0.3,1.8-0.5,2.7c-0.2,0.6-0.1,0.7,0.3,0.2c-0.4,0.3-0.9,0.4-1.3,0.1
		c-0.8-0.3-1.4-1.3-2-1.8c-1.6-1.3-3.3-0.5-4.9,0.3c-1.8,0.9-3.5-0.6-5.3-0.3c-0.4,0.1-1,1.9-1.1,1.9l0,0C6.7,23,8,23.8,9.6,23.6
		c1.9-0.3,2.9-1.8,5-1c1.3,0.5,2,2.4,3.5,2.3c0.7,0,1.3-1.3,1.6-1.8c1-1.7,1.2-3.7,1.6-5.6c0.2-1.2,0.4-2.4,0.7-3.5
		c0.1-0.4,0.2-0.7,0.3-1.1c0.2-0.5,0.2-0.5-0.1,0.1c0.4-0.4,0.9,0,1.2,0.3c1.2,1.2,3.5,13.9,6,12.3c0.6-0.4,1.1-1.5,1.4-2.1
		c0.2-0.4,0.4-0.8,0.5-1.2c0.3-0.8,0.2-0.6-0.5,0.5c0.6-0.6,1.5-0.1,2.1,0.2c1.2,0.7,2.5,2.3,4.1,1.6c1.3-0.6,1.7-2.1,3.4-1.3
		C40.7,23.6,42.1,21,42,20.9"/>
</g>
<g>
</g>
<g>
</g>
<g>
</g>
<g>
</g>
<g>
</g>
<g>
</g>
<g>
</g>
</svg>
