<?xml version="1.0" encoding="utf-8"?>
<!-- Generator: Adobe Illustrator 18.1.0, SVG Export Plug-In . SVG Version: 6.00 Build 0)  -->
<!DOCTYPE svg PUBLIC "-//W3C//DTD SVG 1.1//EN" "http://www.w3.org/Graphics/SVG/1.1/DTD/svg11.dtd">
<svg version="1.1" id="Layer_1" xmlns="http://www.w3.org/2000/svg" xmlns:xlink="http://www.w3.org/1999/xlink" x="0px" y="0px"
	 width="261px" height="41px" viewBox="0 0 261 41" enable-background="new 0 0 261 41" xml:space="preserve">
<rect x="0.5" y="0.5" fill="#DA3527" stroke="#DA3527" stroke-width="1.0463" stroke-miterlimit="10" width="260" height="40"/>
<g>
	<path fill="#FFFFFF" d="M54.9,26.9H47V13.1h7.8l0.2,1.4h-6.1v4.4h5.2v1.5h-5.2v5H55L54.9,26.9z"/>
	<path fill="#FFFFFF" d="M59.2,26.9h-1.8V13.1l1.8-0.1V26.9z"/>
	<path fill="#FFFFFF" d="M70.1,21.7c-0.7,0.1-1.2,0.1-1.4,0.1h-5.1c0,0.9,0,1.9,0.1,3c0,0.4,0.2,0.7,0.5,0.8c0.3,0.1,1,0.2,1.9,0.2
		c0.4,0,0.7,0,0.9,0c0.3,0,0.5-0.1,0.6-0.1c0.2-0.1,0.3-0.1,0.4-0.2c0.1-0.1,0.2-0.2,0.2-0.3c0-0.1,0.1-0.3,0.1-0.4
		c0-0.1,0-0.2,0-0.4c0-0.2,0-0.4,0-0.5l1.4,0.3c0,0.4,0,0.8-0.1,1.1c0,0.3-0.1,0.6-0.3,0.8c-0.1,0.2-0.3,0.4-0.4,0.5
		c-0.2,0.1-0.4,0.2-0.6,0.3c-0.3,0.1-0.6,0.1-0.9,0.2c-0.3,0-0.7,0-1.2,0c-0.6,0-1.2,0-1.6-0.1s-0.8-0.2-1.2-0.3
		c-0.3-0.1-0.6-0.3-0.8-0.5s-0.4-0.5-0.5-0.7c-0.1-0.2-0.2-0.5-0.3-1c-0.1-0.4-0.1-0.8-0.1-1.1c0-0.3,0-0.8,0-1.4c0-0.9,0-1.5,0-2
		c0-0.5,0.1-1,0.2-1.4c0.1-0.5,0.2-0.8,0.4-1c0.2-0.2,0.4-0.4,0.7-0.6s0.7-0.3,1.2-0.4c0.4-0.1,1-0.1,1.7-0.1c0.5,0,0.9,0,1.2,0
		s0.7,0.1,1,0.2c0.3,0.1,0.5,0.2,0.7,0.3c0.2,0.1,0.4,0.3,0.5,0.5c0.1,0.2,0.3,0.4,0.3,0.7c0.1,0.2,0.1,0.5,0.2,0.9
		c0,0.4,0.1,0.8,0.1,1.2C70.1,20.6,70.1,21.1,70.1,21.7z M63.6,20.8h4.6c0-0.8,0-1.5-0.1-2.2c0-0.4-0.2-0.6-0.5-0.8
		c-0.3-0.1-0.8-0.2-1.6-0.2c-0.9,0-1.4,0-1.7,0.1c-0.1,0-0.2,0.1-0.3,0.2c-0.1,0.1-0.1,0.2-0.2,0.3c0,0.1-0.1,0.3-0.1,0.4
		c0,0.1,0,0.3-0.1,0.5s0,0.4,0,0.5c0,0.1,0,0.3,0,0.6S63.6,20.7,63.6,20.8z"/>
	<path fill="#FFFFFF" d="M80.3,19.6l-1.5,0.3l-0.2-1.3c0-0.3-0.1-0.5-0.2-0.6c-0.2-0.2-0.6-0.3-1.3-0.3c-0.2,0-0.4,0-0.6,0
		c-0.8,0-1.4,0-1.7,0.1c-0.3,0-0.5,0.3-0.6,0.8S74,19.8,74,20.6l0,1.6c0,0.2,0,0.5,0,0.9c0,0.5,0,0.9,0,1.1c0,0.2,0,0.4,0.1,0.7
		s0.1,0.4,0.2,0.5c0.1,0.1,0.2,0.1,0.4,0.2c0.2,0.1,0.4,0.1,0.6,0.1c0.2,0,0.6,0,1,0c0.3,0,0.6,0,0.9,0c0.2,0,0.5-0.1,0.6-0.1
		c0.2,0,0.3-0.1,0.4-0.2c0.1-0.1,0.2-0.2,0.3-0.2c0.1-0.1,0.1-0.2,0.1-0.3c0-0.1,0.1-0.3,0.1-0.4s0-0.3,0-0.5c0-0.2,0-0.4,0-0.5
		l1.5,0.3c0,0.5-0.1,0.9-0.1,1.2s-0.1,0.6-0.2,0.8s-0.2,0.5-0.4,0.6c-0.2,0.1-0.4,0.3-0.7,0.4c-0.3,0.1-0.6,0.2-1,0.2
		C77.4,27,77,27,76.4,27c-0.4,0-0.8,0-1.1,0c-0.3,0-0.6-0.1-0.9-0.2s-0.5-0.2-0.7-0.2s-0.4-0.2-0.5-0.4c-0.2-0.2-0.3-0.3-0.4-0.5
		c-0.1-0.1-0.2-0.3-0.3-0.6c-0.1-0.3-0.1-0.5-0.2-0.7c0-0.2-0.1-0.5-0.1-0.9s0-0.8,0-1.1c0-0.3,0-0.7,0-1.3c0-0.5,0-0.9,0-1.3
		s0.1-0.7,0.1-1c0.1-0.3,0.1-0.6,0.2-0.8s0.2-0.4,0.4-0.6c0.2-0.2,0.3-0.3,0.5-0.5c0.2-0.1,0.4-0.2,0.7-0.3c0.3-0.1,0.6-0.1,0.9-0.2
		c0.3,0,0.7,0,1.2,0c0.6,0,1.1,0,1.5,0.1c0.4,0.1,0.8,0.2,1.1,0.3c0.3,0.1,0.6,0.3,0.7,0.6c0.2,0.3,0.3,0.6,0.4,0.9
		C80.2,18.7,80.2,19.1,80.3,19.6z"/>
	<path fill="#FFFFFF" d="M86.7,25.6l0,1.3c-0.5,0.1-1,0.1-1.4,0.1c-0.5,0-0.8,0-1.1-0.1c-0.3-0.1-0.5-0.3-0.7-0.5s-0.3-0.5-0.3-0.7
		s-0.1-0.6-0.1-1v-6.9h-1.4v-1h1.4v-2.9l1.8-0.1v3h1.9v1h-1.9v6.3c0,0.7,0,1.1,0.1,1.3c0.1,0.2,0.2,0.3,0.5,0.3
		C85.8,25.7,86.2,25.6,86.7,25.6z"/>
	<path fill="#FFFFFF" d="M93.6,16.5L93.6,18c-0.2,0-0.5,0-0.7,0c-0.4,0-0.8,0-1.1,0.1c-0.3,0.1-0.5,0.2-0.6,0.4S91,19,90.9,19.3
		c0,0.3-0.1,0.6-0.1,1.1c0,0.3,0,0.6,0,1.1c0,0.5,0,0.8,0,1v4.4h-1.8V16.7h1.7l0.2,1.1c0.2-0.4,0.5-0.8,0.9-1
		c0.4-0.2,0.9-0.4,1.4-0.4C93.4,16.5,93.5,16.5,93.6,16.5z"/>
	<path fill="#FFFFFF" d="M99.6,27c-0.7,0-1.3,0-1.7-0.1s-0.9-0.2-1.2-0.4c-0.3-0.2-0.6-0.4-0.8-0.6c-0.2-0.2-0.3-0.6-0.4-1
		c-0.1-0.5-0.2-0.9-0.2-1.4c0-0.5,0-1.1,0-1.9c0-0.6,0-1.1,0-1.5c0-0.4,0.1-0.8,0.1-1.2c0.1-0.4,0.1-0.7,0.2-0.9s0.2-0.5,0.4-0.7
		s0.3-0.4,0.5-0.5c0.2-0.1,0.5-0.2,0.8-0.3c0.3-0.1,0.6-0.1,1-0.2c0.4,0,0.8,0,1.3,0c0.5,0,0.9,0,1.3,0c0.4,0,0.7,0.1,1,0.2
		c0.3,0.1,0.6,0.2,0.8,0.3c0.2,0.1,0.4,0.3,0.5,0.5c0.2,0.2,0.3,0.4,0.4,0.7s0.2,0.6,0.2,0.9s0.1,0.8,0.1,1.2s0,0.9,0,1.5
		c0,0.8,0,1.4,0,1.9c0,0.5-0.1,0.9-0.2,1.4c-0.1,0.5-0.2,0.8-0.4,1c-0.2,0.2-0.4,0.4-0.8,0.6c-0.3,0.2-0.7,0.3-1.2,0.4
		C100.9,27,100.3,27,99.6,27z M99.6,25.8c0.9,0,1.5-0.1,1.8-0.2c0.3-0.1,0.5-0.3,0.5-0.7c0.1-0.9,0.1-1.9,0.1-3.1c0-0.4,0-0.9,0-1.6
		c0-0.7,0-1.2,0-1.6c0-0.1,0-0.2-0.1-0.3c0-0.1-0.1-0.2-0.2-0.2c-0.1-0.1-0.2-0.1-0.2-0.2c-0.1,0-0.2-0.1-0.3-0.1s-0.3,0-0.4-0.1
		c-0.1,0-0.2,0-0.4,0s-0.3,0-0.4,0c-0.1,0-0.2,0-0.4,0c-0.2,0-0.3,0-0.4,0c-0.1,0-0.2,0-0.4,0s-0.3,0-0.4,0c-0.1,0-0.2,0-0.4,0.1
		s-0.2,0.1-0.3,0.1c-0.1,0-0.2,0.1-0.2,0.2c-0.1,0.1-0.1,0.1-0.2,0.2c0,0.1-0.1,0.2-0.1,0.3c0,0.3,0,0.9,0,1.6c0,0.7,0,1.3,0,1.6
		c0,1.2,0,2.2,0.1,3.1c0,0.3,0.2,0.6,0.5,0.7C98.1,25.7,98.7,25.8,99.6,25.8z"/>
	<path fill="#FFFFFF" d="M114.5,26.9h-1.8v-6.2c0-0.4,0-0.7,0-1c0-0.2,0-0.5,0-0.7c0-0.2,0-0.4-0.1-0.5s-0.1-0.2-0.1-0.4
		c-0.1-0.1-0.1-0.2-0.2-0.2c-0.1,0-0.2-0.1-0.3-0.1c-0.1,0-0.3-0.1-0.4-0.1s-0.3,0-0.5,0c-0.5,0-0.9,0-1.2,0.1
		c-0.3,0.1-0.6,0.1-0.8,0.2s-0.4,0.2-0.5,0.4c-0.1,0.2-0.2,0.3-0.2,0.5c0,0.2-0.1,0.4-0.1,0.7c0,0.2,0,0.4,0,0.8c0,0.4,0,0.7,0,1
		v5.4h-1.8V16.7h1.7l0.2,1.1c0.2-0.5,0.5-0.9,1.1-1.1c0.6-0.2,1.2-0.3,2-0.3c0.4,0,0.7,0,1,0.1c0.3,0,0.5,0.1,0.7,0.2
		c0.2,0.1,0.4,0.2,0.6,0.3s0.3,0.3,0.4,0.5s0.2,0.4,0.3,0.7c0.1,0.2,0.1,0.5,0.2,0.8c0,0.3,0.1,0.7,0.1,1c0,0.3,0,0.7,0,1.2V26.9z"
		/>
	<path fill="#FFFFFF" d="M119.2,12.8v1.6h-1.8v-1.6H119.2z M119.2,26.9h-1.8V16.7h1.8V26.9z"/>
	<path fill="#FFFFFF" d="M129.9,19.6l-1.5,0.3l-0.2-1.3c-0.1-0.3-0.1-0.5-0.2-0.6c-0.2-0.2-0.6-0.3-1.3-0.3c-0.2,0-0.4,0-0.6,0
		c-0.8,0-1.4,0-1.7,0.1c-0.3,0-0.5,0.3-0.6,0.8s-0.2,1.1-0.2,1.9l0,1.6c0,0.2,0,0.5,0,0.9c0,0.5,0,0.9,0,1.1c0,0.2,0,0.4,0.1,0.7
		s0.1,0.4,0.2,0.5c0.1,0.1,0.2,0.1,0.4,0.2c0.2,0.1,0.4,0.1,0.6,0.1c0.2,0,0.6,0,1,0c0.3,0,0.6,0,0.9,0s0.5-0.1,0.6-0.1
		c0.2,0,0.3-0.1,0.4-0.2c0.1-0.1,0.2-0.2,0.3-0.2c0.1-0.1,0.1-0.2,0.1-0.3c0-0.1,0.1-0.3,0.1-0.4c0-0.1,0-0.3,0-0.5
		c0-0.2,0-0.4,0-0.5l1.5,0.3c0,0.5-0.1,0.9-0.1,1.2s-0.1,0.6-0.2,0.8c-0.1,0.3-0.2,0.5-0.4,0.6s-0.4,0.3-0.7,0.4
		c-0.3,0.1-0.6,0.2-1,0.2S126.6,27,126,27c-0.4,0-0.8,0-1.1,0c-0.3,0-0.6-0.1-0.9-0.2s-0.5-0.2-0.7-0.2s-0.4-0.2-0.5-0.4
		c-0.2-0.2-0.3-0.3-0.4-0.5c-0.1-0.1-0.2-0.3-0.3-0.6c-0.1-0.3-0.1-0.5-0.2-0.7c0-0.2-0.1-0.5-0.1-0.9s0-0.8,0-1.1
		c0-0.3,0-0.7,0-1.3c0-0.5,0-0.9,0-1.3s0.1-0.7,0.1-1c0.1-0.3,0.1-0.6,0.2-0.8s0.2-0.4,0.4-0.6c0.2-0.2,0.3-0.3,0.5-0.5
		c0.2-0.1,0.4-0.2,0.7-0.3c0.3-0.1,0.6-0.1,0.9-0.2c0.3,0,0.7,0,1.2,0c0.6,0,1.1,0,1.5,0.1c0.4,0.1,0.8,0.2,1.1,0.3
		c0.3,0.1,0.6,0.3,0.7,0.6s0.3,0.6,0.4,0.9C129.8,18.7,129.9,19.1,129.9,19.6z"/>
	<path fill="#FFFFFF" d="M139.7,24.1c0,0.6-0.1,1.1-0.2,1.5c-0.1,0.4-0.3,0.7-0.6,0.9c-0.3,0.2-0.7,0.4-1.1,0.5
		c-0.4,0.1-1,0.1-1.6,0.1c-0.4,0-0.7,0-0.9,0c-0.2,0-0.5,0-0.8,0c-0.3,0-0.5-0.1-0.7-0.1c-0.2-0.1-0.4-0.1-0.6-0.2s-0.4-0.2-0.5-0.3
		c-0.1-0.1-0.2-0.3-0.3-0.5c-0.1-0.2-0.2-0.4-0.2-0.7c0-0.3-0.1-0.6-0.1-0.9l1.4-0.4c0.1,0.7,0.1,1.2,0.2,1.3
		c0.1,0.3,0.3,0.4,0.7,0.5c0.3,0.1,0.8,0.1,1.7,0.1c0.5,0,0.9,0,1.1-0.1c0.3,0,0.4-0.1,0.5-0.3c0.2-0.2,0.4-0.9,0.4-2.1
		c0-0.2,0-0.3-0.1-0.5s-0.2-0.2-0.3-0.3c-0.1-0.1-0.3-0.1-0.4-0.2c-0.2,0-0.4-0.1-0.5-0.1c-0.2,0-0.4,0-0.6-0.1
		c-0.2,0-0.4,0-0.6-0.1c-0.5,0-0.8-0.1-1.1-0.1c-0.3,0-0.6-0.1-0.9-0.2c-0.3-0.1-0.5-0.2-0.7-0.3c-0.2-0.1-0.3-0.3-0.5-0.5
		c-0.1-0.2-0.2-0.5-0.3-0.8s-0.1-0.7-0.1-1.1c0-0.4,0-0.8,0.1-1.1c0.1-0.3,0.2-0.6,0.4-0.8s0.4-0.4,0.7-0.5c0.3-0.1,0.7-0.2,1.1-0.2
		c0.4,0,0.9-0.1,1.4-0.1c0.4,0,0.6,0,0.9,0s0.5,0,0.7,0.1c0.3,0,0.5,0.1,0.7,0.1c0.2,0.1,0.3,0.1,0.5,0.3s0.3,0.2,0.4,0.4
		s0.2,0.4,0.2,0.6c0.1,0.2,0.1,0.5,0.1,0.8l-1.2,0.4c0-0.2,0-0.4-0.1-0.6c0-0.1-0.1-0.3-0.1-0.4c-0.1-0.1-0.2-0.2-0.2-0.3
		c-0.1,0-0.2-0.1-0.4-0.1s-0.4-0.1-0.6-0.1c-0.2,0-0.5,0-0.9,0c-0.8,0-1.3,0.1-1.6,0.2c-0.3,0.2-0.4,0.4-0.4,0.8v0.9
		c0,0.4,0.1,0.7,0.4,0.8c0.2,0.1,0.9,0.2,2,0.4c0.1,0,0.2,0,0.3,0c0.4,0,0.8,0.1,1,0.1c0.3,0,0.5,0.1,0.8,0.2
		c0.3,0.1,0.5,0.2,0.6,0.3c0.1,0.1,0.3,0.2,0.4,0.4s0.3,0.3,0.3,0.5c0.1,0.2,0.1,0.5,0.2,0.8C139.7,23.3,139.7,23.7,139.7,24.1z"/>
	<path fill="#FFFFFF" d="M141.8,21.9v-1.3h5.4v1.3H141.8z"/>
	<path fill="#FFFFFF" d="M159.6,16.9c0,1.2-0.2,2.1-0.7,2.6c-0.4,0.6-1.1,0.9-1.9,1.1c1.2,0.2,1.9,1,2.1,2.3l0.7,4.1h-2
		c0-0.3-0.1-0.7-0.2-1.2c-0.1-0.5-0.1-1-0.2-1.4c-0.1-0.4-0.1-0.8-0.2-1.2s-0.2-0.8-0.4-1.1s-0.3-0.5-0.5-0.6
		c-0.3-0.1-0.9-0.2-1.6-0.2h-2.9v5.7H150V13.1h4.2c0.4,0,0.8,0,1.1,0s0.6,0,1,0.1c0.3,0,0.6,0.1,0.9,0.1c0.2,0.1,0.5,0.1,0.7,0.2
		s0.4,0.2,0.6,0.3c0.2,0.1,0.3,0.3,0.5,0.5c0.1,0.2,0.3,0.4,0.3,0.6s0.1,0.5,0.2,0.8C159.5,16.1,159.6,16.5,159.6,16.9z M157.7,17.6
		v-1.3c0-0.2,0-0.4,0-0.6c0-0.1,0-0.3-0.1-0.4c0-0.2-0.1-0.3-0.2-0.3c-0.1-0.1-0.2-0.2-0.3-0.2c-0.1-0.1-0.3-0.1-0.5-0.2
		c-0.2,0-0.4-0.1-0.7-0.1c-0.3,0-0.6,0-1,0h-3.1v5.2h3.2c0.5,0,0.9,0,1.2-0.1c0.3,0,0.6-0.1,0.8-0.2c0.2-0.1,0.3-0.2,0.4-0.4
		s0.2-0.4,0.2-0.6C157.7,18.2,157.7,18,157.7,17.6z"/>
	<path fill="#FFFFFF" d="M170.1,21.7c-0.7,0.1-1.2,0.1-1.4,0.1h-5.1c0,0.9,0,1.9,0.1,3c0,0.4,0.2,0.7,0.5,0.8c0.3,0.1,1,0.2,1.9,0.2
		c0.4,0,0.7,0,0.9,0c0.3,0,0.5-0.1,0.6-0.1c0.2-0.1,0.3-0.1,0.4-0.2c0.1-0.1,0.2-0.2,0.2-0.3c0-0.1,0.1-0.3,0.1-0.4
		c0-0.1,0-0.2,0-0.4c0-0.2,0-0.4,0-0.5l1.4,0.3c0,0.4,0,0.8-0.1,1.1c0,0.3-0.1,0.6-0.3,0.8c-0.1,0.2-0.3,0.4-0.4,0.5
		c-0.2,0.1-0.4,0.2-0.7,0.3s-0.6,0.1-0.9,0.2c-0.3,0-0.7,0-1.2,0c-0.6,0-1.2,0-1.6-0.1s-0.8-0.2-1.2-0.3c-0.3-0.1-0.6-0.3-0.8-0.5
		c-0.2-0.2-0.4-0.5-0.5-0.7c-0.1-0.2-0.2-0.5-0.3-1s-0.1-0.8-0.1-1.1c0-0.3,0-0.8,0-1.4c0-0.9,0-1.5,0-2s0.1-1,0.2-1.4
		c0.1-0.5,0.2-0.8,0.4-1c0.2-0.2,0.4-0.4,0.7-0.6c0.3-0.2,0.7-0.3,1.2-0.4c0.4-0.1,1-0.1,1.7-0.1c0.5,0,0.9,0,1.2,0
		c0.3,0,0.7,0.1,1,0.2c0.3,0.1,0.5,0.2,0.7,0.3s0.4,0.3,0.5,0.5c0.1,0.2,0.3,0.4,0.3,0.7c0.1,0.2,0.1,0.5,0.2,0.9
		c0,0.4,0.1,0.8,0.1,1.2C170.1,20.6,170.1,21.1,170.1,21.7z M163.7,20.8h4.6c0-0.8,0-1.5-0.1-2.2c0-0.4-0.2-0.6-0.5-0.8
		c-0.3-0.1-0.8-0.2-1.6-0.2c-0.9,0-1.4,0-1.7,0.1c-0.1,0-0.2,0.1-0.3,0.2c-0.1,0.1-0.1,0.2-0.2,0.3c0,0.1-0.1,0.3-0.1,0.4
		c0,0.1,0,0.3-0.1,0.5c0,0.2,0,0.4,0,0.5c0,0.1,0,0.3,0,0.6S163.7,20.7,163.7,20.8z"/>
	<path fill="#FFFFFF" d="M174.5,26.9h-1.8V13.1l1.8-0.1V26.9z"/>
	<path fill="#FFFFFF" d="M184.9,26.9h-1.4l-0.3-1.5c-0.2,0.6-0.5,1.1-1,1.3c-0.5,0.2-1.2,0.3-2.1,0.3c-0.6,0-1.1-0.1-1.5-0.2
		c-0.4-0.1-0.7-0.3-0.9-0.6c-0.2-0.3-0.4-0.6-0.5-1c-0.1-0.4-0.1-0.9-0.1-1.6c0-0.3,0.1-0.6,0.2-0.8c0.1-0.2,0.2-0.4,0.4-0.6
		c0.2-0.2,0.4-0.3,0.7-0.4c0.3-0.1,0.6-0.2,0.9-0.3c0.3-0.1,0.7-0.1,1.1-0.2c0.4,0,0.9-0.1,1.3-0.1c0.4,0,0.9,0,1.5,0v-2.8
		c0-0.3-0.1-0.5-0.4-0.7c-0.3-0.1-0.8-0.2-1.6-0.2c-0.5,0-0.9,0-1.2,0c-0.3,0-0.5,0.1-0.6,0.2c-0.1,0.1-0.2,0.2-0.2,0.4
		c0,0.1,0,0.3,0,0.7c0,0.1,0,0.2,0,0.3l-1.4-0.1c0-0.1,0-0.2,0-0.4c0-0.4,0.1-0.8,0.2-1.1c0.1-0.3,0.3-0.5,0.5-0.7
		c0.2-0.2,0.5-0.3,0.8-0.4c0.3-0.1,0.7-0.2,1-0.2c0.3,0,0.7,0,1.2,0c0.7,0,1.3,0.1,1.8,0.2c0.5,0.1,0.8,0.3,1.1,0.6
		c0.3,0.3,0.5,0.7,0.6,1.1c0.1,0.5,0.2,1.1,0.2,1.8V26.9z M183.1,24v-1.6c-1.2,0-2.2,0-2.8,0.1c-0.7,0.1-1.1,0.2-1.3,0.4
		c-0.2,0.2-0.3,0.4-0.3,0.7c0,0,0,0,0,0.1c0,0.9,0.1,1.5,0.2,1.8c0.2,0.2,0.6,0.3,1.4,0.3c0.7,0,1.2-0.1,1.6-0.2
		c0.4-0.2,0.7-0.4,0.9-0.6S183,24.3,183.1,24z"/>
	<path fill="#FFFFFF" d="M191.7,25.6l0,1.3c-0.5,0.1-1,0.1-1.4,0.1c-0.5,0-0.8,0-1.1-0.1c-0.3-0.1-0.5-0.3-0.7-0.5s-0.3-0.5-0.3-0.7
		s-0.1-0.6-0.1-1v-6.9h-1.4v-1h1.4v-2.9l1.8-0.1v3h1.9v1h-1.9v6.3c0,0.7,0,1.1,0.1,1.3c0.1,0.2,0.2,0.3,0.5,0.3
		C190.9,25.7,191.2,25.6,191.7,25.6z"/>
	<path fill="#FFFFFF" d="M202.1,21.7c-0.7,0.1-1.2,0.1-1.4,0.1h-5.1c0,0.9,0,1.9,0.1,3c0,0.4,0.2,0.7,0.5,0.8c0.3,0.1,1,0.2,1.9,0.2
		c0.4,0,0.7,0,0.9,0c0.3,0,0.5-0.1,0.6-0.1c0.2-0.1,0.3-0.1,0.4-0.2c0.1-0.1,0.2-0.2,0.2-0.3c0-0.1,0.1-0.3,0.1-0.4
		c0-0.1,0-0.2,0-0.4c0-0.2,0-0.4,0-0.5l1.4,0.3c0,0.4,0,0.8-0.1,1.1c0,0.3-0.1,0.6-0.3,0.8c-0.1,0.2-0.3,0.4-0.4,0.5
		c-0.2,0.1-0.4,0.2-0.7,0.3s-0.6,0.1-0.9,0.2c-0.3,0-0.7,0-1.2,0c-0.6,0-1.2,0-1.6-0.1s-0.8-0.2-1.2-0.3c-0.3-0.1-0.6-0.3-0.8-0.5
		c-0.2-0.2-0.4-0.5-0.5-0.7c-0.1-0.2-0.2-0.5-0.3-1s-0.1-0.8-0.1-1.1c0-0.3,0-0.8,0-1.4c0-0.9,0-1.5,0-2s0.1-1,0.2-1.4
		c0.1-0.5,0.2-0.8,0.4-1c0.2-0.2,0.4-0.4,0.7-0.6c0.3-0.2,0.7-0.3,1.2-0.4c0.4-0.1,1-0.1,1.7-0.1c0.5,0,0.9,0,1.2,0
		c0.3,0,0.7,0.1,1,0.2c0.3,0.1,0.5,0.2,0.7,0.3s0.4,0.3,0.5,0.5c0.1,0.2,0.3,0.4,0.3,0.7c0.1,0.2,0.1,0.5,0.2,0.9
		c0,0.4,0.1,0.8,0.1,1.2C202.1,20.6,202.1,21.1,202.1,21.7z M195.7,20.8h4.6c0-0.8,0-1.5-0.1-2.2c0-0.4-0.2-0.6-0.5-0.8
		c-0.3-0.1-0.8-0.2-1.6-0.2c-0.9,0-1.4,0-1.7,0.1c-0.1,0-0.2,0.1-0.3,0.2c-0.1,0.1-0.1,0.2-0.2,0.3c0,0.1-0.1,0.3-0.1,0.4
		c0,0.1,0,0.3-0.1,0.5c0,0.2,0,0.4,0,0.5c0,0.1,0,0.3,0,0.6S195.7,20.7,195.7,20.8z"/>
	<path fill="#FFFFFF" d="M212.7,26.9H211l-0.2-1.3c-0.4,0.9-1.4,1.4-3,1.4c-0.4,0-0.8,0-1.1-0.1c-0.3-0.1-0.6-0.2-0.9-0.3
		c-0.2-0.1-0.5-0.3-0.6-0.4c-0.2-0.1-0.3-0.4-0.4-0.6c-0.1-0.3-0.2-0.5-0.3-0.8c-0.1-0.2-0.1-0.5-0.1-0.9s0-0.8-0.1-1.1s0-0.7,0-1.2
		c0-0.5,0-0.9,0-1.3c0-0.4,0-0.7,0.1-1.1c0-0.4,0.1-0.7,0.2-0.9c0.1-0.2,0.2-0.5,0.3-0.7s0.3-0.4,0.5-0.6c0.2-0.1,0.4-0.3,0.7-0.4
		c0.3-0.1,0.5-0.2,0.9-0.2c0.3,0,0.7-0.1,1.1-0.1c0.8,0,1.4,0.1,1.9,0.3s0.8,0.6,1,1v-5l1.8-0.1V26.9z M210.8,24.5v-5.4
		c0-0.5-0.2-0.9-0.5-1.1c-0.3-0.2-1-0.3-1.9-0.3c-0.7,0-1.3,0.1-1.6,0.2c-0.3,0.1-0.5,0.3-0.6,0.8c-0.1,0.4-0.1,1-0.1,1.7
		c0,1,0,2.5,0.1,4.4c0,0.4,0.2,0.7,0.5,0.8c0.3,0.1,0.9,0.2,1.8,0.2c0.9,0,1.5-0.1,1.8-0.3C210.6,25.3,210.8,25,210.8,24.5z"/>
	<path fill="#FFFFFF" d="M217.8,25.8c0,0.4-0.1,0.8-0.4,1c-0.3,0.2-0.6,0.4-0.9,0.4c-0.4,0-0.7-0.1-0.9-0.4c-0.3-0.2-0.4-0.6-0.4-1
		c0-0.4,0.1-0.8,0.4-1c0.3-0.2,0.5-0.4,0.9-0.4c0.4,0,0.7,0.1,0.9,0.4C217.6,25.1,217.8,25.4,217.8,25.8z"/>
	<path fill="#FFFFFF" d="M227.9,19.6l-1.5,0.3l-0.2-1.3c0-0.3-0.1-0.5-0.2-0.6c-0.2-0.2-0.6-0.3-1.3-0.3c-0.2,0-0.4,0-0.6,0
		c-0.8,0-1.4,0-1.7,0.1c-0.3,0-0.5,0.3-0.6,0.8s-0.2,1.1-0.2,1.9l0,1.6c0,0.2,0,0.5,0,0.9c0,0.5,0,0.9,0,1.1c0,0.2,0,0.4,0.1,0.7
		s0.1,0.4,0.2,0.5c0.1,0.1,0.2,0.1,0.4,0.2c0.2,0.1,0.4,0.1,0.6,0.1c0.2,0,0.6,0,1,0c0.3,0,0.6,0,0.9,0c0.2,0,0.5-0.1,0.6-0.1
		c0.2,0,0.3-0.1,0.4-0.2c0.1-0.1,0.2-0.2,0.3-0.2c0.1-0.1,0.1-0.2,0.1-0.3c0-0.1,0.1-0.3,0.1-0.4c0-0.1,0-0.3,0-0.5
		c0-0.2,0-0.4,0-0.5l1.5,0.3c0,0.5-0.1,0.9-0.1,1.2c0,0.3-0.1,0.6-0.2,0.8s-0.2,0.5-0.4,0.6s-0.4,0.3-0.7,0.4s-0.6,0.2-1,0.2
		c-0.4,0-0.9,0.1-1.4,0.1c-0.4,0-0.8,0-1.1,0c-0.3,0-0.6-0.1-0.9-0.2c-0.3-0.1-0.5-0.2-0.7-0.2s-0.4-0.2-0.5-0.4
		c-0.2-0.2-0.3-0.3-0.4-0.5c-0.1-0.1-0.2-0.3-0.3-0.6s-0.1-0.5-0.2-0.7c0-0.2-0.1-0.5-0.1-0.9s0-0.8,0-1.1c0-0.3,0-0.7,0-1.3
		c0-0.5,0-0.9,0-1.3s0.1-0.7,0.1-1s0.1-0.6,0.2-0.8c0.1-0.2,0.2-0.4,0.4-0.6c0.2-0.2,0.3-0.3,0.5-0.5c0.2-0.1,0.4-0.2,0.7-0.3
		c0.3-0.1,0.6-0.1,0.9-0.2c0.3,0,0.7,0,1.2,0c0.6,0,1.1,0,1.5,0.1s0.8,0.2,1.1,0.3s0.6,0.3,0.7,0.6s0.3,0.6,0.4,0.9
		C227.8,18.7,227.9,19.1,227.9,19.6z"/>
	<path fill="#FFFFFF" d="M234.2,27c-0.7,0-1.3,0-1.7-0.1s-0.9-0.2-1.2-0.4c-0.3-0.2-0.6-0.4-0.8-0.6c-0.2-0.2-0.3-0.6-0.4-1
		c-0.1-0.5-0.2-0.9-0.2-1.4c0-0.5,0-1.1,0-1.9c0-0.6,0-1.1,0-1.5c0-0.4,0.1-0.8,0.1-1.2s0.1-0.7,0.2-0.9c0.1-0.2,0.2-0.5,0.4-0.7
		c0.2-0.2,0.3-0.4,0.5-0.5s0.5-0.2,0.8-0.3c0.3-0.1,0.6-0.1,1-0.2c0.4,0,0.8,0,1.3,0c0.5,0,0.9,0,1.3,0c0.4,0,0.7,0.1,1,0.2
		s0.6,0.2,0.8,0.3c0.2,0.1,0.4,0.3,0.5,0.5c0.2,0.2,0.3,0.4,0.4,0.7c0.1,0.2,0.2,0.6,0.2,0.9s0.1,0.8,0.1,1.2s0,0.9,0,1.5
		c0,0.8,0,1.4,0,1.9c0,0.5-0.1,0.9-0.2,1.4c-0.1,0.5-0.2,0.8-0.4,1c-0.2,0.2-0.4,0.4-0.8,0.6s-0.7,0.3-1.2,0.4S234.9,27,234.2,27z
		 M234.2,25.8c0.9,0,1.5-0.1,1.8-0.2s0.5-0.3,0.5-0.7c0.1-0.9,0.1-1.9,0.1-3.1c0-0.4,0-0.9,0-1.6c0-0.7,0-1.2,0-1.6
		c0-0.1,0-0.2-0.1-0.3c0-0.1-0.1-0.2-0.2-0.2c-0.1-0.1-0.2-0.1-0.2-0.2c-0.1,0-0.2-0.1-0.3-0.1c-0.1,0-0.3,0-0.4-0.1s-0.2,0-0.4,0
		s-0.3,0-0.4,0c-0.1,0-0.2,0-0.4,0s-0.3,0-0.4,0c-0.1,0-0.2,0-0.4,0c-0.2,0-0.3,0-0.4,0s-0.2,0-0.4,0.1s-0.2,0.1-0.3,0.1
		c-0.1,0-0.2,0.1-0.2,0.2c-0.1,0.1-0.1,0.1-0.2,0.2c0,0.1-0.1,0.2-0.1,0.3c0,0.3,0,0.9,0,1.6c0,0.7,0,1.3,0,1.6c0,1.2,0,2.2,0.1,3.1
		c0,0.3,0.2,0.6,0.5,0.7C232.7,25.7,233.3,25.8,234.2,25.8z"/>
	<path fill="#FFFFFF" d="M254.6,26.9h-1.8v-6.2c0-0.7,0-1.2,0-1.6c0-0.2,0-0.4,0-0.5c0-0.1-0.1-0.3-0.2-0.4
		c-0.1-0.1-0.3-0.3-0.5-0.3c-0.2-0.1-0.6-0.1-0.9-0.1c-0.4,0-0.8,0-1,0.1c-0.3,0.1-0.5,0.1-0.7,0.2c-0.2,0.1-0.3,0.2-0.4,0.4
		c-0.1,0.2-0.2,0.3-0.2,0.5c0,0.2,0,0.4,0,0.7c0,0.1,0,0.4,0,0.7c0,0.3,0,0.6,0,0.8v5.7h-1.8v-6.5c0,0,0-0.1,0-0.1
		c0-0.4,0-0.7,0-0.9c0-0.2,0-0.4-0.1-0.6c0-0.2-0.1-0.4-0.2-0.5c-0.1-0.1-0.2-0.2-0.4-0.3c-0.2-0.1-0.4-0.2-0.6-0.2
		c-0.2,0-0.5,0-0.9,0c-0.2,0-0.4,0-0.6,0c-0.2,0-0.4,0.1-0.6,0.1c-0.2,0.1-0.3,0.2-0.5,0.3c-0.1,0.1-0.2,0.3-0.2,0.4
		c-0.1,0.8-0.1,1.7-0.1,2.7v5.6H241V16.7h1.7l0.2,1.1c0.2-0.5,0.6-0.9,1.1-1.1s1.1-0.3,1.8-0.3c0.7,0,1.3,0.1,1.7,0.3
		c0.4,0.2,0.7,0.6,0.9,1.1c0.5-1,1.5-1.4,2.9-1.4c0.5,0,0.9,0,1.2,0.1c0.3,0.1,0.6,0.1,0.9,0.3c0.3,0.1,0.5,0.3,0.6,0.5
		c0.2,0.2,0.3,0.5,0.4,0.8s0.2,0.7,0.2,1.1s0.1,0.9,0.1,1.5V26.9z"/>
</g>
<g>
</g>
<g>
</g>
<g>
	<circle fill="#374A59" stroke="#FFFFFF" stroke-width="1.082" stroke-miterlimit="10" cx="24.6" cy="20.3" r="13.7"/>
	<line stroke="#FFFFFF" stroke-width="0.989" stroke-miterlimit="10" x1="19.4" y1="20.3" x2="7.2" y2="20.3"/>
	<rect x="19.4" y="13.3" fill="#FFFFFF" stroke="#FFFFFF" stroke-width="1.2308" stroke-miterlimit="10" width="2.3" height="14"/>
	<g>
		<g>
			<line fill="none" stroke="#FFFFFF" stroke-width="1.2308" stroke-miterlimit="10" x1="21.7" y1="24.8" x2="29.1" y2="28.5"/>
			<g>
				<polygon fill="#FFFFFF" points="25.6,30.2 28.1,28 28.4,24.7 33.5,30.7 				"/>
			</g>
		</g>
	</g>
	<line fill="none" stroke="#FFFFFF" stroke-width="0.8819" stroke-miterlimit="10" x1="33.2" y1="6.1" x2="33.2" y2="10.4"/>
	<line fill="none" stroke="#FFFFFF" stroke-width="0.8819" stroke-miterlimit="10" x1="33.2" y1="30.4" x2="33.2" y2="34.8"/>
	<line fill="none" stroke="#FFFFFF" stroke-width="1.2308" stroke-miterlimit="10" x1="30.4" y1="29.2" x2="33.5" y2="30.7"/>
	<line fill="none" stroke="#FFFFFF" stroke-width="1.2308" stroke-miterlimit="10" x1="33.4" y1="9.9" x2="21.7" y2="15.3"/>
</g>
<g>
</g>
<g>
</g>
<g>
</g>
<g>
</g>
<g>
</g>
<g>
</g>
<g>
</g>
<g>
</g>
</svg>
