<?xml version="1.0" encoding="utf-8"?>
<!-- Generator: Adobe Illustrator 18.1.0, SVG Export Plug-In . SVG Version: 6.00 Build 0)  -->
<!DOCTYPE svg PUBLIC "-//W3C//DTD SVG 1.1//EN" "http://www.w3.org/Graphics/SVG/1.1/DTD/svg11.dtd">
<svg version="1.1" id="Layer_1" xmlns="http://www.w3.org/2000/svg" xmlns:xlink="http://www.w3.org/1999/xlink" x="0px" y="0px"
	 width="261px" height="41px" viewBox="0 0 261 41" enable-background="new 0 0 261 41" xml:space="preserve">
<symbol  id="Embedded_Logo" viewBox="-21 -21 42 42">
	<path fill="#DA3427" d="M1.5-20.4c-0.8-0.8-2.1-0.8-3,0L-20.4-1.5c-0.8,0.8-0.8,2.1,0,3l18.9,18.9c0.8,0.8,2.1,0.8,3,0L20.4,1.5
		c0.8-0.8,0.8-2.1,0-3L1.5-20.4z"/>
	<polygon fill="#FFFFFF" points="5.2,2.5 5.2,3.2 10.5,3.3 14.7,7 15.1,6.5 10.7,2.7 	"/>
	<path fill="#FFFFFF" d="M4.3,1.2c-0.9,0-1.6,0.7-1.6,1.6c0,0.9,0.7,1.6,1.6,1.6c0.9,0,1.6-0.7,1.6-1.6C5.9,1.9,5.2,1.2,4.3,1.2z
		 M4.3,3.7c-0.5,0-0.9-0.4-0.9-0.9c0-0.5,0.4-0.9,0.9-0.9c0.5,0,0.9,0.4,0.9,0.9C5.2,3.3,4.8,3.7,4.3,3.7z"/>
	<polygon fill="#FFFFFF" points="11.1,-2.4 0.8,-2.4 0.8,-1.8 10.8,-1.8 17.4,4.5 17.8,4 	"/>
	<path fill="#FFFFFF" d="M-0.2-3.6C-1-3.6-1.8-2.9-1.8-2c0,0.9,0.7,1.6,1.6,1.6S1.4-1.2,1.4-2C1.4-2.9,0.7-3.6-0.2-3.6z M-0.2-1.1
		c-0.5,0-0.9-0.4-0.9-0.9c0-0.5,0.4-0.9,0.9-0.9c0.5,0,0.9,0.4,0.9,0.9C0.8-1.5,0.3-1.1-0.2-1.1z"/>
	<polygon fill="#FFFFFF" points="-7.2,-14.7 -7.6,-14.3 -4.8,-11.8 0.6,-11.7 0.7,-12.3 -4.6,-12.4 	"/>
	<path fill="#FFFFFF" d="M1.6-13.5L1.6-13.5c-0.4,0-0.8,0.2-1.1,0.5C0.2-12.8,0-12.4,0-12c0,0.9,0.7,1.6,1.6,1.6
		c0.9,0,1.6-0.7,1.6-1.6C3.2-12.8,2.5-13.5,1.6-13.5z M1.6-11c-0.5,0-0.9-0.4-0.9-0.9c0-0.2,0.1-0.5,0.3-0.7
		c0.2-0.2,0.4-0.3,0.7-0.3h0c0.5,0,0.9,0.4,0.9,0.9C2.5-11.5,2.1-11,1.6-11z"/>
	<polygon fill="#FFFFFF" points="-9.9,-12 -10.3,-11.6 -5.2,-6.7 5.1,-6.8 5.1,-7.4 -4.9,-7.4 	"/>
	<path fill="#FFFFFF" d="M6.1-8.7L6.1-8.7C5.7-8.7,5.3-8.6,5-8.3C4.7-8,4.5-7.6,4.5-7.2c0,0.9,0.7,1.6,1.6,1.6
		c0.9,0,1.6-0.7,1.6-1.6C7.7-8,6.9-8.7,6.1-8.7z M6.1-6.2c-0.5,0-0.9-0.4-0.9-0.9c0-0.2,0.1-0.5,0.3-0.7C5.6-8,5.8-8.1,6.1-8.1
		C6.6-8.1,7-7.7,7-7.2C7-6.7,6.6-6.2,6.1-6.2z"/>
</symbol>
<rect x="0.5" y="0.5" fill="#374A59" stroke="#374A59" stroke-width="1.0463" stroke-miterlimit="10" width="260" height="40"/>
<use xlink:href="#Embedded_Logo"  width="42" height="42" x="-21" y="-21" transform="matrix(0.7921 0 0 -0.7921 23.8657 20.523)" overflow="visible"/>
<g>
	<path fill="#FFFFFF" d="M54.9,26.9H47V13.1h7.8l0.2,1.4h-6.1v4.4h5.2v1.5h-5.2v5H55L54.9,26.9z"/>
	<path fill="#FFFFFF" d="M70.8,26.9H69v-6.2c0-0.7,0-1.2,0-1.6c0-0.2,0-0.4,0-0.5c0-0.1-0.1-0.3-0.2-0.4c-0.1-0.1-0.3-0.3-0.5-0.3
		c-0.2-0.1-0.6-0.1-0.9-0.1c-0.4,0-0.8,0-1,0.1c-0.3,0.1-0.5,0.1-0.7,0.2c-0.2,0.1-0.3,0.2-0.4,0.4c-0.1,0.2-0.2,0.3-0.2,0.5
		s0,0.4,0,0.7c0,0.1,0,0.4,0,0.7s0,0.6,0,0.8v5.7h-1.8v-6.5c0,0,0-0.1,0-0.1c0-0.4,0-0.7,0-0.9c0-0.2,0-0.4-0.1-0.6
		c0-0.2-0.1-0.4-0.2-0.5c-0.1-0.1-0.2-0.2-0.4-0.3c-0.2-0.1-0.4-0.2-0.6-0.2s-0.5,0-0.9,0c-0.2,0-0.4,0-0.6,0s-0.4,0.1-0.6,0.1
		c-0.2,0.1-0.3,0.2-0.5,0.3c-0.1,0.1-0.2,0.3-0.2,0.4c-0.1,0.8-0.1,1.7-0.1,2.7v5.6h-1.8V16.7h1.7l0.2,1.1c0.2-0.5,0.6-0.9,1.1-1.1
		c0.5-0.2,1.1-0.3,1.8-0.3c0.7,0,1.3,0.1,1.7,0.3c0.4,0.2,0.7,0.6,0.9,1.1c0.5-1,1.5-1.4,2.9-1.4c0.5,0,0.9,0,1.2,0.1
		s0.6,0.1,0.9,0.3c0.3,0.1,0.5,0.3,0.6,0.5c0.2,0.2,0.3,0.5,0.4,0.8s0.2,0.7,0.2,1.1c0,0.4,0.1,0.9,0.1,1.5V26.9z"/>
	<path fill="#FFFFFF" d="M82,21.2c0,0.5,0,0.9,0,1.2c0,0.3,0,0.6,0,1s0,0.7-0.1,0.9c0,0.2-0.1,0.5-0.1,0.7c-0.1,0.3-0.1,0.5-0.2,0.6
		s-0.2,0.3-0.3,0.5c-0.1,0.2-0.3,0.3-0.5,0.4s-0.4,0.2-0.6,0.3c-0.2,0.1-0.5,0.1-0.8,0.2c-0.3,0-0.6,0-0.9,0c-1.6,0-2.6-0.5-3-1.4
		l-0.2,1.3h-1.7V12.8l1.8-0.1v5.2c0.2-0.5,0.5-0.8,1-1.1s1.1-0.3,1.8-0.3c0.4,0,0.8,0,1.1,0.1s0.6,0.1,0.9,0.3
		c0.3,0.1,0.5,0.2,0.7,0.4c0.2,0.1,0.3,0.3,0.5,0.6c0.1,0.2,0.2,0.5,0.3,0.7c0.1,0.2,0.1,0.5,0.2,0.8c0,0.3,0.1,0.6,0.1,0.9
		C82,20.5,82,20.8,82,21.2z M80.2,19.8c0-0.3,0-0.5,0-0.6c0-0.1,0-0.3,0-0.5c0-0.2-0.1-0.3-0.1-0.4c0-0.1-0.1-0.2-0.2-0.3
		c-0.1-0.1-0.2-0.2-0.3-0.2c-0.1,0-0.2-0.1-0.4-0.1c-0.2,0-0.4-0.1-0.6-0.1c-0.2,0-0.5,0-0.8,0c-0.6,0-1.1,0-1.5,0.1
		c-0.4,0.1-0.6,0.2-0.8,0.5c-0.1,0.2-0.2,0.7-0.2,1.4v4.7c0,0.5,0.2,0.9,0.5,1.1c0.4,0.2,1,0.3,1.9,0.3c0.9,0,1.5-0.1,1.8-0.2
		c0.4-0.1,0.5-0.7,0.5-1.9L80.2,19.8z"/>
	<path fill="#FFFFFF" d="M92.5,21.7c-0.7,0.1-1.2,0.1-1.4,0.1h-5.1c0,0.9,0,1.9,0.1,3c0,0.4,0.2,0.7,0.5,0.8c0.3,0.1,1,0.2,1.9,0.2
		c0.4,0,0.7,0,0.9,0c0.3,0,0.5-0.1,0.6-0.1c0.2-0.1,0.3-0.1,0.4-0.2c0.1-0.1,0.2-0.2,0.2-0.3c0-0.1,0.1-0.3,0.1-0.4
		c0-0.1,0-0.2,0-0.4c0-0.2,0-0.4,0-0.5l1.4,0.3c0,0.4,0,0.8-0.1,1.1c0,0.3-0.1,0.6-0.3,0.8c-0.1,0.2-0.3,0.4-0.4,0.5
		c-0.2,0.1-0.4,0.2-0.6,0.3C90.6,26.9,90.3,27,90,27c-0.3,0-0.7,0-1.2,0c-0.6,0-1.2,0-1.6-0.1s-0.8-0.2-1.2-0.3
		c-0.3-0.1-0.6-0.3-0.8-0.5s-0.4-0.5-0.5-0.7c-0.1-0.2-0.2-0.5-0.3-1c-0.1-0.4-0.1-0.8-0.1-1.1c0-0.3,0-0.8,0-1.4c0-0.9,0-1.5,0-2
		c0-0.5,0.1-1,0.2-1.4c0.1-0.5,0.2-0.8,0.4-1c0.2-0.2,0.4-0.4,0.7-0.6s0.7-0.3,1.2-0.4c0.4-0.1,1-0.1,1.7-0.1c0.5,0,0.9,0,1.2,0
		s0.7,0.1,1,0.2c0.3,0.1,0.5,0.2,0.7,0.3c0.2,0.1,0.4,0.3,0.5,0.5c0.1,0.2,0.3,0.4,0.3,0.7c0.1,0.2,0.1,0.5,0.2,0.9
		c0,0.4,0.1,0.8,0.1,1.2C92.5,20.6,92.5,21.1,92.5,21.7z M86.1,20.8h4.6c0-0.8,0-1.5-0.1-2.2c0-0.4-0.2-0.6-0.5-0.8
		c-0.3-0.1-0.8-0.2-1.6-0.2c-0.9,0-1.4,0-1.7,0.1c-0.1,0-0.2,0.1-0.3,0.2c-0.1,0.1-0.1,0.2-0.2,0.3c0,0.1-0.1,0.3-0.1,0.4
		c0,0.1,0,0.3-0.1,0.5s0,0.4,0,0.5c0,0.1,0,0.3,0,0.6S86.1,20.7,86.1,20.8z"/>
	<path fill="#FFFFFF" d="M103.1,26.9h-1.7l-0.2-1.3c-0.4,0.9-1.4,1.4-3,1.4c-0.4,0-0.8,0-1.1-0.1c-0.3-0.1-0.6-0.2-0.9-0.3
		c-0.2-0.1-0.5-0.3-0.6-0.4c-0.2-0.1-0.3-0.4-0.4-0.6c-0.1-0.3-0.2-0.5-0.3-0.8c-0.1-0.2-0.1-0.5-0.1-0.9c0-0.4,0-0.8-0.1-1.1
		c0-0.3,0-0.7,0-1.2c0-0.5,0-0.9,0-1.3c0-0.4,0-0.7,0.1-1.1s0.1-0.7,0.2-0.9c0.1-0.2,0.2-0.5,0.3-0.7s0.3-0.4,0.5-0.6
		c0.2-0.1,0.4-0.3,0.7-0.4c0.3-0.1,0.5-0.2,0.9-0.2c0.3,0,0.7-0.1,1.1-0.1c0.8,0,1.4,0.1,1.9,0.3c0.4,0.2,0.8,0.6,1,1v-5l1.8-0.1
		V26.9z M101.3,24.5v-5.4c0-0.5-0.2-0.9-0.5-1.1c-0.3-0.2-1-0.3-1.9-0.3c-0.7,0-1.3,0.1-1.6,0.2c-0.3,0.1-0.5,0.3-0.6,0.8
		c-0.1,0.4-0.1,1-0.1,1.7c0,1,0,2.5,0.1,4.4c0,0.4,0.2,0.7,0.5,0.8c0.3,0.1,0.9,0.2,1.8,0.2c0.9,0,1.5-0.1,1.8-0.3
		C101.1,25.3,101.2,25,101.3,24.5z"/>
	<path fill="#FFFFFF" d="M113.9,26.9h-1.7l-0.2-1.3c-0.4,0.9-1.4,1.4-3,1.4c-0.4,0-0.8,0-1.1-0.1c-0.3-0.1-0.6-0.2-0.9-0.3
		c-0.2-0.1-0.5-0.3-0.6-0.4c-0.2-0.1-0.3-0.4-0.4-0.6c-0.1-0.3-0.2-0.5-0.3-0.8c-0.1-0.2-0.1-0.5-0.1-0.9c0-0.4,0-0.8-0.1-1.1
		c0-0.3,0-0.7,0-1.2c0-0.5,0-0.9,0-1.3c0-0.4,0-0.7,0.1-1.1s0.1-0.7,0.2-0.9c0.1-0.2,0.2-0.5,0.3-0.7s0.3-0.4,0.5-0.6
		c0.2-0.1,0.4-0.3,0.7-0.4c0.3-0.1,0.5-0.2,0.9-0.2c0.3,0,0.7-0.1,1.1-0.1c0.8,0,1.4,0.1,1.9,0.3c0.4,0.2,0.8,0.6,1,1v-5l1.8-0.1
		V26.9z M112.1,24.5v-5.4c0-0.5-0.2-0.9-0.5-1.1c-0.3-0.2-1-0.3-1.9-0.3c-0.7,0-1.3,0.1-1.6,0.2c-0.3,0.1-0.5,0.3-0.6,0.8
		c-0.1,0.4-0.1,1-0.1,1.7c0,1,0,2.5,0.1,4.4c0,0.4,0.2,0.7,0.5,0.8c0.3,0.1,0.9,0.2,1.8,0.2c0.9,0,1.5-0.1,1.8-0.3
		C111.9,25.3,112.1,25,112.1,24.5z"/>
	<path fill="#FFFFFF" d="M124.6,21.7c-0.7,0.1-1.2,0.1-1.4,0.1h-5.1c0,0.9,0,1.9,0.1,3c0,0.4,0.2,0.7,0.5,0.8c0.3,0.1,1,0.2,1.9,0.2
		c0.4,0,0.7,0,0.9,0c0.3,0,0.5-0.1,0.6-0.1c0.2-0.1,0.3-0.1,0.4-0.2c0.1-0.1,0.2-0.2,0.2-0.3c0-0.1,0.1-0.3,0.1-0.4
		c0-0.1,0-0.2,0-0.4c0-0.2,0-0.4,0-0.5l1.4,0.3c0,0.4,0,0.8-0.1,1.1c0,0.3-0.1,0.6-0.3,0.8c-0.1,0.2-0.3,0.4-0.4,0.5
		c-0.2,0.1-0.4,0.2-0.6,0.3c-0.3,0.1-0.6,0.1-0.9,0.2c-0.3,0-0.7,0-1.2,0c-0.6,0-1.2,0-1.6-0.1s-0.8-0.2-1.2-0.3
		c-0.3-0.1-0.6-0.3-0.8-0.5s-0.4-0.5-0.5-0.7c-0.1-0.2-0.2-0.5-0.3-1c-0.1-0.4-0.1-0.8-0.1-1.1c0-0.3,0-0.8,0-1.4c0-0.9,0-1.5,0-2
		c0-0.5,0.1-1,0.2-1.4c0.1-0.5,0.2-0.8,0.4-1c0.2-0.2,0.4-0.4,0.7-0.6s0.7-0.3,1.2-0.4c0.4-0.1,1-0.1,1.7-0.1c0.5,0,0.9,0,1.2,0
		s0.7,0.1,1,0.2c0.3,0.1,0.5,0.2,0.7,0.3c0.2,0.1,0.4,0.3,0.5,0.5c0.1,0.2,0.3,0.4,0.3,0.7c0.1,0.2,0.1,0.5,0.2,0.9
		c0,0.4,0.1,0.8,0.1,1.2C124.6,20.6,124.6,21.1,124.6,21.7z M118.2,20.8h4.6c0-0.8,0-1.5-0.1-2.2c0-0.4-0.2-0.6-0.5-0.8
		c-0.3-0.1-0.8-0.2-1.6-0.2c-0.9,0-1.4,0-1.7,0.1c-0.1,0-0.2,0.1-0.3,0.2c-0.1,0.1-0.1,0.2-0.2,0.3c0,0.1-0.1,0.3-0.1,0.4
		c0,0.1,0,0.3-0.1,0.5s0,0.4,0,0.5c0,0.1,0,0.3,0,0.6S118.2,20.7,118.2,20.8z"/>
	<path fill="#FFFFFF" d="M135.2,26.9h-1.7l-0.2-1.3c-0.4,0.9-1.4,1.4-3,1.4c-0.4,0-0.8,0-1.1-0.1c-0.3-0.1-0.6-0.2-0.9-0.3
		c-0.2-0.1-0.5-0.3-0.6-0.4c-0.2-0.1-0.3-0.4-0.4-0.6c-0.1-0.3-0.2-0.5-0.3-0.8c-0.1-0.2-0.1-0.5-0.1-0.9s0-0.8-0.1-1.1s0-0.7,0-1.2
		c0-0.5,0-0.9,0-1.3c0-0.4,0-0.7,0.1-1.1c0-0.4,0.1-0.7,0.2-0.9c0.1-0.2,0.2-0.5,0.3-0.7s0.3-0.4,0.5-0.6c0.2-0.1,0.4-0.3,0.7-0.4
		c0.3-0.1,0.5-0.2,0.9-0.2c0.3,0,0.7-0.1,1.1-0.1c0.8,0,1.4,0.1,1.9,0.3s0.8,0.6,1,1v-5l1.8-0.1V26.9z M133.4,24.5v-5.4
		c0-0.5-0.2-0.9-0.5-1.1c-0.3-0.2-1-0.3-1.9-0.3c-0.7,0-1.3,0.1-1.6,0.2c-0.3,0.1-0.5,0.3-0.6,0.8c-0.1,0.4-0.1,1-0.1,1.7
		c0,1,0,2.5,0.1,4.4c0,0.4,0.2,0.7,0.5,0.8c0.3,0.1,0.9,0.2,1.8,0.2c0.9,0,1.5-0.1,1.8-0.3C133.1,25.3,133.3,25,133.4,24.5z"/>
	<path fill="#FFFFFF" d="M147.8,16.9c0,1.2-0.2,2.1-0.7,2.6c-0.4,0.6-1.1,0.9-1.9,1.1c1.2,0.2,1.9,1,2.1,2.3l0.7,4.1h-2
		c0-0.3-0.1-0.7-0.2-1.2c-0.1-0.5-0.1-1-0.2-1.4c-0.1-0.4-0.1-0.8-0.2-1.2s-0.2-0.8-0.4-1.1c-0.2-0.3-0.3-0.5-0.5-0.6
		c-0.3-0.1-0.9-0.2-1.6-0.2H140v5.7h-1.9V13.1h4.2c0.4,0,0.8,0,1.1,0s0.6,0,1,0.1c0.3,0,0.6,0.1,0.9,0.1c0.2,0.1,0.5,0.1,0.7,0.2
		s0.4,0.2,0.6,0.3c0.2,0.1,0.3,0.3,0.5,0.5c0.1,0.2,0.3,0.4,0.3,0.6s0.1,0.5,0.2,0.8C147.7,16.1,147.8,16.5,147.8,16.9z M145.9,17.6
		v-1.3c0-0.2,0-0.4,0-0.6c0-0.1,0-0.3-0.1-0.4c0-0.2-0.1-0.3-0.2-0.3c-0.1-0.1-0.2-0.2-0.3-0.2c-0.1-0.1-0.3-0.1-0.5-0.2
		c-0.2,0-0.4-0.1-0.7-0.1c-0.3,0-0.6,0-1,0H140v5.2h3.2c0.5,0,0.9,0,1.2-0.1c0.3,0,0.6-0.1,0.8-0.2c0.2-0.1,0.3-0.2,0.4-0.4
		s0.2-0.4,0.2-0.6C145.9,18.2,145.9,17.9,145.9,17.6z"/>
	<path fill="#FFFFFF" d="M158.3,21.7c-0.7,0.1-1.2,0.1-1.4,0.1h-5.1c0,0.9,0,1.9,0.1,3c0,0.4,0.2,0.7,0.5,0.8c0.3,0.1,1,0.2,1.9,0.2
		c0.4,0,0.7,0,0.9,0c0.3,0,0.5-0.1,0.6-0.1c0.2-0.1,0.3-0.1,0.4-0.2c0.1-0.1,0.2-0.2,0.2-0.3c0-0.1,0.1-0.3,0.1-0.4
		c0-0.1,0-0.2,0-0.4c0-0.2,0-0.4,0-0.5l1.4,0.3c0,0.4,0,0.8-0.1,1.1c0,0.3-0.1,0.6-0.3,0.8c-0.1,0.2-0.3,0.4-0.4,0.5
		c-0.2,0.1-0.4,0.2-0.7,0.3s-0.6,0.1-0.9,0.2c-0.3,0-0.7,0-1.2,0c-0.6,0-1.2,0-1.6-0.1s-0.8-0.2-1.2-0.3c-0.3-0.1-0.6-0.3-0.8-0.5
		c-0.2-0.2-0.4-0.5-0.5-0.7c-0.1-0.2-0.2-0.5-0.3-1s-0.1-0.8-0.1-1.1c0-0.3,0-0.8,0-1.4c0-0.9,0-1.5,0-2s0.1-1,0.2-1.4
		c0.1-0.5,0.2-0.8,0.4-1c0.2-0.2,0.4-0.4,0.7-0.6c0.3-0.2,0.7-0.3,1.2-0.4c0.4-0.1,1-0.1,1.7-0.1c0.5,0,0.9,0,1.2,0
		c0.3,0,0.7,0.1,1,0.2c0.3,0.1,0.5,0.2,0.7,0.3s0.4,0.3,0.5,0.5c0.1,0.2,0.3,0.4,0.3,0.7c0.1,0.2,0.1,0.5,0.2,0.9
		c0,0.4,0.1,0.8,0.1,1.2C158.3,20.6,158.3,21.1,158.3,21.7z M151.9,20.8h4.6c0-0.8,0-1.5-0.1-2.2c0-0.4-0.2-0.6-0.5-0.8
		c-0.3-0.1-0.8-0.2-1.6-0.2c-0.9,0-1.4,0-1.7,0.1c-0.1,0-0.2,0.1-0.3,0.2c-0.1,0.1-0.1,0.2-0.2,0.3c0,0.1-0.1,0.3-0.1,0.4
		c0,0.1,0,0.3-0.1,0.5c0,0.2,0,0.4,0,0.5c0,0.1,0,0.3,0,0.6S151.9,20.7,151.9,20.8z"/>
	<path fill="#FFFFFF" d="M162.7,26.9h-1.8V13.1l1.8-0.1V26.9z"/>
	<path fill="#FFFFFF" d="M173.1,26.9h-1.4l-0.3-1.5c-0.2,0.6-0.5,1.1-1,1.3c-0.5,0.2-1.2,0.3-2.1,0.3c-0.6,0-1.1-0.1-1.5-0.2
		c-0.4-0.1-0.7-0.3-0.9-0.6c-0.2-0.3-0.4-0.6-0.5-1c-0.1-0.4-0.1-0.9-0.1-1.6c0-0.3,0.1-0.6,0.2-0.8c0.1-0.2,0.2-0.4,0.4-0.6
		c0.2-0.2,0.4-0.3,0.7-0.4c0.3-0.1,0.6-0.2,0.9-0.3c0.3-0.1,0.7-0.1,1.1-0.2c0.4,0,0.9-0.1,1.3-0.1c0.4,0,0.9,0,1.5,0v-2.8
		c0-0.3-0.1-0.5-0.4-0.7c-0.3-0.1-0.8-0.2-1.6-0.2c-0.5,0-0.9,0-1.2,0c-0.3,0-0.5,0.1-0.6,0.2c-0.1,0.1-0.2,0.2-0.2,0.4
		c0,0.1,0,0.3,0,0.7c0,0.1,0,0.2,0,0.3l-1.4-0.1c0-0.1,0-0.2,0-0.4c0-0.4,0.1-0.8,0.2-1.1c0.1-0.3,0.3-0.5,0.5-0.7
		c0.2-0.2,0.5-0.3,0.8-0.4c0.3-0.1,0.7-0.2,1-0.2c0.3,0,0.7,0,1.2,0c0.7,0,1.3,0.1,1.8,0.2c0.5,0.1,0.8,0.3,1.1,0.6
		c0.3,0.3,0.5,0.7,0.6,1.1c0.1,0.5,0.2,1.1,0.2,1.8V26.9z M171.3,24v-1.6c-1.2,0-2.2,0-2.8,0.1c-0.7,0.1-1.1,0.2-1.3,0.4
		c-0.2,0.2-0.3,0.4-0.3,0.7c0,0,0,0,0,0.1c0,0.9,0.1,1.5,0.2,1.8c0.2,0.2,0.6,0.3,1.4,0.3c0.7,0,1.2-0.1,1.6-0.2
		c0.4-0.2,0.7-0.4,0.9-0.6S171.3,24.3,171.3,24z"/>
	<path fill="#FFFFFF" d="M179.9,25.6l0,1.3c-0.5,0.1-1,0.1-1.4,0.1c-0.5,0-0.8,0-1.1-0.1c-0.3-0.1-0.5-0.3-0.7-0.5s-0.3-0.5-0.3-0.7
		s-0.1-0.6-0.1-1v-6.9h-1.4v-1h1.4v-2.9l1.8-0.1v3h1.9v1h-1.9v6.3c0,0.7,0,1.1,0.1,1.3c0.1,0.2,0.2,0.3,0.5,0.3
		C179.1,25.7,179.5,25.6,179.9,25.6z"/>
	<path fill="#FFFFFF" d="M190.3,21.7c-0.7,0.1-1.2,0.1-1.4,0.1h-5.1c0,0.9,0,1.9,0.1,3c0,0.4,0.2,0.7,0.5,0.8c0.3,0.1,1,0.2,1.9,0.2
		c0.4,0,0.7,0,0.9,0c0.3,0,0.5-0.1,0.6-0.1c0.2-0.1,0.3-0.1,0.4-0.2c0.1-0.1,0.2-0.2,0.2-0.3c0-0.1,0.1-0.3,0.1-0.4
		c0-0.1,0-0.2,0-0.4c0-0.2,0-0.4,0-0.5l1.4,0.3c0,0.4,0,0.8-0.1,1.1c0,0.3-0.1,0.6-0.3,0.8c-0.1,0.2-0.3,0.4-0.4,0.5
		c-0.2,0.1-0.4,0.2-0.7,0.3s-0.6,0.1-0.9,0.2c-0.3,0-0.7,0-1.2,0c-0.6,0-1.2,0-1.6-0.1s-0.8-0.2-1.2-0.3c-0.3-0.1-0.6-0.3-0.8-0.5
		c-0.2-0.2-0.4-0.5-0.5-0.7c-0.1-0.2-0.2-0.5-0.3-1s-0.1-0.8-0.1-1.1c0-0.3,0-0.8,0-1.4c0-0.9,0-1.5,0-2s0.1-1,0.2-1.4
		c0.1-0.5,0.2-0.8,0.4-1c0.2-0.2,0.4-0.4,0.7-0.6c0.3-0.2,0.7-0.3,1.2-0.4c0.4-0.1,1-0.1,1.7-0.1c0.5,0,0.9,0,1.2,0
		c0.3,0,0.7,0.1,1,0.2c0.3,0.1,0.5,0.2,0.7,0.3s0.4,0.3,0.5,0.5c0.1,0.2,0.3,0.4,0.3,0.7c0.1,0.2,0.1,0.5,0.2,0.9
		c0,0.4,0.1,0.8,0.1,1.2C190.3,20.6,190.3,21.1,190.3,21.7z M183.9,20.8h4.6c0-0.8,0-1.5-0.1-2.2c0-0.4-0.2-0.6-0.5-0.8
		c-0.3-0.1-0.8-0.2-1.6-0.2c-0.9,0-1.4,0-1.7,0.1c-0.1,0-0.2,0.1-0.3,0.2c-0.1,0.1-0.1,0.2-0.2,0.3c0,0.1-0.1,0.3-0.1,0.4
		c0,0.1,0,0.3-0.1,0.5c0,0.2,0,0.4,0,0.5c0,0.1,0,0.3,0,0.6S183.9,20.7,183.9,20.8z"/>
	<path fill="#FFFFFF" d="M200.9,26.9h-1.7l-0.2-1.3c-0.4,0.9-1.4,1.4-3,1.4c-0.4,0-0.8,0-1.1-0.1c-0.3-0.1-0.6-0.2-0.9-0.3
		c-0.2-0.1-0.5-0.3-0.6-0.4c-0.2-0.1-0.3-0.4-0.4-0.6c-0.1-0.3-0.2-0.5-0.3-0.8c-0.1-0.2-0.1-0.5-0.1-0.9s0-0.8-0.1-1.1s0-0.7,0-1.2
		c0-0.5,0-0.9,0-1.3c0-0.4,0-0.7,0.1-1.1c0-0.4,0.1-0.7,0.2-0.9c0.1-0.2,0.2-0.5,0.3-0.7s0.3-0.4,0.5-0.6c0.2-0.1,0.4-0.3,0.7-0.4
		c0.3-0.1,0.5-0.2,0.9-0.2c0.3,0,0.7-0.1,1.1-0.1c0.8,0,1.4,0.1,1.9,0.3s0.8,0.6,1,1v-5l1.8-0.1V26.9z M199,24.5v-5.4
		c0-0.5-0.2-0.9-0.5-1.1c-0.3-0.2-1-0.3-1.9-0.3c-0.7,0-1.3,0.1-1.6,0.2c-0.3,0.1-0.5,0.3-0.6,0.8c-0.1,0.4-0.1,1-0.1,1.7
		c0,1,0,2.5,0.1,4.4c0,0.4,0.2,0.7,0.5,0.8c0.3,0.1,0.9,0.2,1.8,0.2c0.9,0,1.5-0.1,1.8-0.3C198.8,25.3,199,25,199,24.5z"/>
	<path fill="#FFFFFF" d="M206,25.8c0,0.4-0.1,0.8-0.4,1c-0.3,0.2-0.6,0.4-0.9,0.4c-0.4,0-0.7-0.1-0.9-0.4c-0.3-0.2-0.4-0.6-0.4-1
		c0-0.4,0.1-0.8,0.4-1c0.3-0.2,0.5-0.4,0.9-0.4c0.4,0,0.7,0.1,0.9,0.4C205.8,25.1,206,25.4,206,25.8z"/>
	<path fill="#FFFFFF" d="M216.1,19.6l-1.5,0.3l-0.2-1.3c0-0.3-0.1-0.5-0.2-0.6c-0.2-0.2-0.6-0.3-1.3-0.3c-0.2,0-0.4,0-0.6,0
		c-0.8,0-1.4,0-1.7,0.1c-0.3,0-0.5,0.3-0.6,0.8s-0.2,1.1-0.2,1.9l0,1.6c0,0.2,0,0.5,0,0.9c0,0.5,0,0.9,0,1.1c0,0.2,0,0.4,0.1,0.7
		s0.1,0.4,0.2,0.5c0.1,0.1,0.2,0.1,0.4,0.2c0.2,0.1,0.4,0.1,0.6,0.1c0.2,0,0.6,0,1,0c0.3,0,0.6,0,0.9,0c0.2,0,0.5-0.1,0.6-0.1
		c0.2,0,0.3-0.1,0.4-0.2c0.1-0.1,0.2-0.2,0.3-0.2c0.1-0.1,0.1-0.2,0.1-0.3c0-0.1,0.1-0.3,0.1-0.4c0-0.1,0-0.3,0-0.5
		c0-0.2,0-0.4,0-0.5l1.5,0.3c0,0.5-0.1,0.9-0.1,1.2c0,0.3-0.1,0.6-0.2,0.8s-0.2,0.5-0.4,0.6s-0.4,0.3-0.7,0.4s-0.6,0.2-1,0.2
		c-0.4,0-0.9,0.1-1.4,0.1c-0.4,0-0.8,0-1.1,0c-0.3,0-0.6-0.1-0.9-0.2c-0.3-0.1-0.5-0.2-0.7-0.2s-0.4-0.2-0.5-0.4
		c-0.2-0.2-0.3-0.3-0.4-0.5c-0.1-0.1-0.2-0.3-0.3-0.6s-0.1-0.5-0.2-0.7c0-0.2-0.1-0.5-0.1-0.9s0-0.8,0-1.1c0-0.3,0-0.7,0-1.3
		c0-0.5,0-0.9,0-1.3s0.1-0.7,0.1-1s0.1-0.6,0.2-0.8c0.1-0.2,0.2-0.4,0.4-0.6c0.2-0.2,0.3-0.3,0.5-0.5c0.2-0.1,0.4-0.2,0.7-0.3
		c0.3-0.1,0.6-0.1,0.9-0.2c0.3,0,0.7,0,1.2,0c0.6,0,1.1,0,1.5,0.1s0.8,0.2,1.1,0.3s0.6,0.3,0.7,0.6s0.3,0.6,0.4,0.9
		C216,18.7,216.1,19.1,216.1,19.6z"/>
	<path fill="#FFFFFF" d="M222.4,27c-0.7,0-1.3,0-1.7-0.1s-0.9-0.2-1.2-0.4c-0.3-0.2-0.6-0.4-0.8-0.6c-0.2-0.2-0.3-0.6-0.4-1
		c-0.1-0.5-0.2-0.9-0.2-1.4c0-0.5,0-1.1,0-1.9c0-0.6,0-1.1,0-1.5c0-0.4,0.1-0.8,0.1-1.2s0.1-0.7,0.2-0.9c0.1-0.2,0.2-0.5,0.4-0.7
		c0.2-0.2,0.3-0.4,0.5-0.5s0.5-0.2,0.8-0.3c0.3-0.1,0.6-0.1,1-0.2c0.4,0,0.8,0,1.3,0c0.5,0,0.9,0,1.3,0c0.4,0,0.7,0.1,1,0.2
		s0.6,0.2,0.8,0.3c0.2,0.1,0.4,0.3,0.5,0.5c0.2,0.2,0.3,0.4,0.4,0.7c0.1,0.2,0.2,0.6,0.2,0.9s0.1,0.8,0.1,1.2s0,0.9,0,1.5
		c0,0.8,0,1.4,0,1.9c0,0.5-0.1,0.9-0.2,1.4c-0.1,0.5-0.2,0.8-0.4,1c-0.2,0.2-0.4,0.4-0.8,0.6s-0.7,0.3-1.2,0.4S223.1,27,222.4,27z
		 M222.4,25.8c0.9,0,1.5-0.1,1.8-0.2s0.5-0.3,0.5-0.7c0.1-0.9,0.1-1.9,0.1-3.1c0-0.4,0-0.9,0-1.6c0-0.7,0-1.2,0-1.6
		c0-0.1,0-0.2-0.1-0.3c0-0.1-0.1-0.2-0.2-0.2c-0.1-0.1-0.2-0.1-0.2-0.2c-0.1,0-0.2-0.1-0.3-0.1c-0.1,0-0.3,0-0.4-0.1s-0.2,0-0.4,0
		s-0.3,0-0.4,0c-0.1,0-0.2,0-0.4,0s-0.3,0-0.4,0c-0.1,0-0.2,0-0.4,0c-0.2,0-0.3,0-0.4,0s-0.2,0-0.4,0.1s-0.2,0.1-0.3,0.1
		c-0.1,0-0.2,0.1-0.2,0.2c-0.1,0.1-0.1,0.1-0.2,0.2c0,0.1-0.1,0.2-0.1,0.3c0,0.3,0,0.9,0,1.6c0,0.7,0,1.3,0,1.6c0,1.2,0,2.2,0.1,3.1
		c0,0.3,0.2,0.6,0.5,0.7C220.9,25.7,221.5,25.8,222.4,25.8z"/>
	<path fill="#FFFFFF" d="M242.8,26.9h-1.8v-6.2c0-0.7,0-1.2,0-1.6c0-0.2,0-0.4,0-0.5c0-0.1-0.1-0.3-0.2-0.4
		c-0.1-0.1-0.3-0.3-0.5-0.3c-0.2-0.1-0.6-0.1-0.9-0.1c-0.4,0-0.8,0-1,0.1c-0.3,0.1-0.5,0.1-0.7,0.2c-0.2,0.1-0.3,0.2-0.4,0.4
		c-0.1,0.2-0.2,0.3-0.2,0.5c0,0.2,0,0.4,0,0.7c0,0.1,0,0.4,0,0.7c0,0.3,0,0.6,0,0.8v5.7h-1.8v-6.5c0,0,0-0.1,0-0.1
		c0-0.4,0-0.7,0-0.9c0-0.2,0-0.4-0.1-0.6c0-0.2-0.1-0.4-0.2-0.5c-0.1-0.1-0.2-0.2-0.4-0.3c-0.2-0.1-0.4-0.2-0.6-0.2
		c-0.2,0-0.5,0-0.9,0c-0.2,0-0.4,0-0.6,0c-0.2,0-0.4,0.1-0.6,0.1c-0.2,0.1-0.3,0.2-0.5,0.3c-0.1,0.1-0.2,0.3-0.2,0.4
		c-0.1,0.8-0.1,1.7-0.1,2.7v5.6h-1.8V16.7h1.7l0.2,1.1c0.2-0.5,0.6-0.9,1.1-1.1s1.1-0.3,1.8-0.3c0.7,0,1.3,0.1,1.7,0.3
		c0.4,0.2,0.7,0.6,0.9,1.1c0.5-1,1.5-1.4,2.9-1.4c0.5,0,0.9,0,1.2,0.1c0.3,0.1,0.6,0.1,0.9,0.3c0.3,0.1,0.5,0.3,0.6,0.5
		c0.2,0.2,0.3,0.5,0.4,0.8s0.2,0.7,0.2,1.1s0.1,0.9,0.1,1.5V26.9z"/>
</g>
<g>
</g>
<g>
</g>
<g>
</g>
<g>
</g>
<g>
</g>
<g>
</g>
<g>
</g>
<g>
</g>
<g>
</g>
<g>
</g>
</svg>
