<?xml version="1.0" encoding="utf-8"?>
<!-- Generator: Adobe Illustrator 18.1.0, SVG Export Plug-In . SVG Version: 6.00 Build 0)  -->
<!DOCTYPE svg PUBLIC "-//W3C//DTD SVG 1.1//EN" "http://www.w3.org/Graphics/SVG/1.1/DTD/svg11.dtd">
<svg version="1.1" id="Layer_1" xmlns="http://www.w3.org/2000/svg" xmlns:xlink="http://www.w3.org/1999/xlink" x="0px" y="0px"
	 width="261px" height="41px" viewBox="0 0 261 41" enable-background="new 0 0 261 41" xml:space="preserve">
<rect x="0.5" y="0.5" fill="#25AA53" stroke="#25AA53" stroke-width="1.0463" stroke-miterlimit="10" width="260" height="40"/>
<g>
	<path fill="#FFFFFF" d="M54.7,14.5H49V19h4.9v1.5H49v6.4h-1.9V13.1h7.4L54.7,14.5z"/>
	<path fill="#FFFFFF" d="M66.1,17.6c0,0.6,0,1.1-0.1,1.5s-0.1,0.8-0.2,1.1c-0.1,0.3-0.2,0.6-0.4,0.8c-0.2,0.2-0.4,0.4-0.6,0.5
		c-0.2,0.1-0.4,0.2-0.7,0.3c-0.3,0.1-0.5,0.1-0.8,0.2c-0.3,0-0.6,0-0.9,0h-3.7v4.8h-1.9V13.1h5c0.6,0,1.1,0,1.5,0.1
		c0.4,0,0.8,0.1,1.1,0.3c0.3,0.1,0.6,0.3,0.8,0.5s0.4,0.5,0.5,0.8c0.1,0.3,0.3,0.7,0.3,1.2C66,16.4,66,16.9,66.1,17.6z M64.2,17.5
		c0-0.4,0-0.8,0-1.1c0-0.3-0.1-0.5-0.1-0.8c-0.1-0.2-0.1-0.4-0.2-0.6c-0.1-0.1-0.2-0.2-0.3-0.3c-0.1-0.1-0.3-0.2-0.5-0.2
		c-0.2,0-0.4,0-0.7,0h-3.7v6.2h3.3c0.5,0,0.9,0,1.2-0.1c0.3-0.1,0.5-0.2,0.7-0.4c0.2-0.2,0.3-0.4,0.3-0.7c0.1-0.3,0.1-0.6,0.1-1
		c0-0.1,0-0.3,0-0.5C64.2,17.8,64.2,17.6,64.2,17.5z"/>
	<path fill="#FFFFFF" d="M78.4,20v5.9c-0.9,0.8-2.7,1.2-5.3,1.2c-0.5,0-1,0-1.4-0.1c-0.4,0-0.8-0.1-1.1-0.2
		c-0.3-0.1-0.6-0.2-0.8-0.3c-0.2-0.2-0.4-0.3-0.6-0.5c-0.2-0.2-0.3-0.4-0.4-0.7c-0.1-0.3-0.2-0.6-0.3-0.9c-0.1-0.3-0.1-0.7-0.2-1.2
		c0-0.5-0.1-1-0.1-1.4c0-0.5,0-1,0-1.8c0-0.6,0-1.1,0-1.6s0-0.9,0.1-1.3s0.1-0.8,0.1-1.1c0.1-0.3,0.1-0.6,0.2-0.9
		c0.1-0.3,0.2-0.6,0.4-0.7c0.1-0.2,0.3-0.4,0.5-0.6s0.4-0.3,0.7-0.4c0.3-0.1,0.5-0.2,0.9-0.3c0.3-0.1,0.7-0.1,1.1-0.2
		c0.4,0,0.8,0,1.3,0c0,0,0.1,0,0.1,0c0.4,0,0.8,0,1,0c0.2,0,0.5,0,0.9,0.1c0.4,0,0.7,0.1,0.9,0.2c0.2,0.1,0.4,0.2,0.7,0.4
		c0.3,0.2,0.5,0.4,0.6,0.6s0.2,0.5,0.3,0.9c0.1,0.4,0.1,0.8,0.1,1.3c0,0.1,0,0.3,0,0.5L76.5,17l-0.1-1.8c0-0.4-0.2-0.7-0.7-0.8
		c-0.4-0.1-1.3-0.2-2.5-0.2c-0.8,0-1.5,0.1-1.9,0.2c-0.4,0.1-0.7,0.3-0.9,0.5c-0.2,0.2-0.3,0.5-0.3,0.9c-0.1,1.3-0.1,2.6-0.1,3.9
		c0,1.3,0,2.6,0.1,3.9c0,0.7,0.1,1.1,0.2,1.3c0.1,0.3,0.4,0.5,0.8,0.6c0.4,0.1,1.1,0.1,2.1,0.1c2.1,0,3.3-0.1,3.5-0.4
		c0-0.6,0-1.9,0-3.9h-2.3L74.2,20H78.4z"/>
	<path fill="#FFFFFF" d="M91,26.9H89l-1-3.5h-5.1l-1,3.5h-1.8l4.2-13.8h2.5L91,26.9z M87.6,22l-1.2-4.1l-1-3.4
		c-0.4,1.3-0.7,2.4-0.9,3.3L83.3,22H87.6z"/>
	<path fill="#FFFFFF" d="M102.5,16.9c0,1.2-0.2,2.1-0.7,2.6c-0.4,0.6-1.1,0.9-1.9,1.1c1.2,0.2,1.9,1,2.1,2.3l0.7,4.1h-2
		c0-0.3-0.1-0.7-0.2-1.2c-0.1-0.5-0.1-1-0.2-1.4c-0.1-0.4-0.1-0.8-0.2-1.2s-0.2-0.8-0.4-1.1c-0.2-0.3-0.3-0.5-0.5-0.6
		c-0.3-0.1-0.9-0.2-1.6-0.2h-2.9v5.7h-1.9V13.1h4.2c0.4,0,0.8,0,1.1,0s0.6,0,1,0.1c0.3,0,0.6,0.1,0.9,0.1c0.2,0.1,0.5,0.1,0.7,0.2
		s0.4,0.2,0.6,0.3c0.2,0.1,0.3,0.3,0.5,0.5c0.1,0.2,0.3,0.4,0.3,0.6s0.1,0.5,0.2,0.8C102.5,16.1,102.5,16.5,102.5,16.9z M100.7,17.6
		v-1.3c0-0.2,0-0.4,0-0.6c0-0.1,0-0.3-0.1-0.4c0-0.2-0.1-0.3-0.2-0.3c-0.1-0.1-0.2-0.2-0.3-0.2c-0.1-0.1-0.3-0.1-0.5-0.2
		c-0.2,0-0.4-0.1-0.7-0.1c-0.3,0-0.6,0-1,0h-3.1v5.2H98c0.5,0,0.9,0,1.2-0.1c0.3,0,0.6-0.1,0.8-0.2c0.2-0.1,0.3-0.2,0.4-0.4
		s0.2-0.4,0.2-0.6C100.6,18.2,100.7,18,100.7,17.6z"/>
	<path fill="#FFFFFF" d="M113.1,21.7c-0.7,0.1-1.2,0.1-1.4,0.1h-5.1c0,0.9,0,1.9,0.1,3c0,0.4,0.2,0.7,0.5,0.8c0.3,0.1,1,0.2,1.9,0.2
		c0.4,0,0.7,0,0.9,0c0.3,0,0.5-0.1,0.6-0.1c0.2-0.1,0.3-0.1,0.4-0.2c0.1-0.1,0.2-0.2,0.2-0.3c0-0.1,0.1-0.3,0.1-0.4
		c0-0.1,0-0.2,0-0.4c0-0.2,0-0.4,0-0.5l1.4,0.3c0,0.4,0,0.8-0.1,1.1c0,0.3-0.1,0.6-0.3,0.8c-0.1,0.2-0.3,0.4-0.4,0.5
		c-0.2,0.1-0.4,0.2-0.6,0.3c-0.3,0.1-0.6,0.1-0.9,0.2c-0.3,0-0.7,0-1.2,0c-0.6,0-1.2,0-1.6-0.1s-0.8-0.2-1.2-0.3
		c-0.3-0.1-0.6-0.3-0.8-0.5s-0.4-0.5-0.5-0.7c-0.1-0.2-0.2-0.5-0.3-1c-0.1-0.4-0.1-0.8-0.1-1.1c0-0.3,0-0.8,0-1.4c0-0.9,0-1.5,0-2
		c0-0.5,0.1-1,0.2-1.4c0.1-0.5,0.2-0.8,0.4-1c0.2-0.2,0.4-0.4,0.7-0.6s0.7-0.3,1.2-0.4c0.4-0.1,1-0.1,1.7-0.1c0.5,0,0.9,0,1.2,0
		s0.7,0.1,1,0.2c0.3,0.1,0.5,0.2,0.7,0.3c0.2,0.1,0.4,0.3,0.5,0.5c0.1,0.2,0.3,0.4,0.3,0.7c0.1,0.2,0.1,0.5,0.2,0.9
		c0,0.4,0.1,0.8,0.1,1.2C113.1,20.6,113.1,21.1,113.1,21.7z M106.7,20.8h4.6c0-0.8,0-1.5-0.1-2.2c0-0.4-0.2-0.6-0.5-0.8
		c-0.3-0.1-0.8-0.2-1.6-0.2c-0.9,0-1.4,0-1.7,0.1c-0.1,0-0.2,0.1-0.3,0.2c-0.1,0.1-0.1,0.2-0.2,0.3c0,0.1-0.1,0.3-0.1,0.4
		c0,0.1,0,0.3-0.1,0.5s0,0.4,0,0.5c0,0.1,0,0.3,0,0.6S106.7,20.7,106.7,20.8z"/>
	<path fill="#FFFFFF" d="M117.5,26.9h-1.8V13.1l1.8-0.1V26.9z"/>
	<path fill="#FFFFFF" d="M127.9,26.9h-1.4l-0.3-1.5c-0.2,0.6-0.5,1.1-1,1.3c-0.5,0.2-1.2,0.3-2.1,0.3c-0.6,0-1.1-0.1-1.5-0.2
		c-0.4-0.1-0.7-0.3-0.9-0.6c-0.2-0.3-0.4-0.6-0.5-1c-0.1-0.4-0.1-0.9-0.1-1.6c0-0.3,0.1-0.6,0.2-0.8c0.1-0.2,0.2-0.4,0.4-0.6
		c0.2-0.2,0.4-0.3,0.7-0.4c0.3-0.1,0.6-0.2,0.9-0.3c0.3-0.1,0.7-0.1,1.1-0.2c0.4,0,0.9-0.1,1.3-0.1c0.4,0,0.9,0,1.5,0v-2.8
		c0-0.3-0.1-0.5-0.4-0.7c-0.3-0.1-0.8-0.2-1.6-0.2c-0.5,0-0.9,0-1.2,0c-0.3,0-0.5,0.1-0.6,0.2c-0.1,0.1-0.2,0.2-0.2,0.4
		c0,0.1,0,0.3,0,0.7c0,0.1,0,0.2,0,0.3l-1.4-0.1c0-0.1,0-0.2,0-0.4c0-0.4,0.1-0.8,0.2-1.1c0.1-0.3,0.3-0.5,0.5-0.7
		c0.2-0.2,0.5-0.3,0.8-0.4c0.3-0.1,0.7-0.2,1-0.2c0.3,0,0.7,0,1.2,0c0.7,0,1.3,0.1,1.8,0.2c0.5,0.1,0.8,0.3,1.1,0.6
		c0.3,0.3,0.5,0.7,0.6,1.1c0.1,0.5,0.2,1.1,0.2,1.8V26.9z M126,24v-1.6c-1.2,0-2.2,0-2.8,0.1s-1.1,0.2-1.3,0.4s-0.3,0.4-0.3,0.7
		c0,0,0,0,0,0.1c0,0.9,0.1,1.5,0.2,1.8c0.2,0.2,0.6,0.3,1.4,0.3c0.7,0,1.2-0.1,1.6-0.2s0.7-0.4,0.9-0.6C125.9,24.7,126,24.3,126,24z
		"/>
	<path fill="#FFFFFF" d="M134.7,25.6l0,1.3c-0.5,0.1-1,0.1-1.4,0.1c-0.5,0-0.8,0-1.1-0.1c-0.3-0.1-0.5-0.3-0.7-0.5s-0.3-0.5-0.3-0.7
		s-0.1-0.6-0.1-1v-6.9h-1.4v-1h1.4v-2.9l1.8-0.1v3h1.9v1h-1.9v6.3c0,0.7,0,1.1,0.1,1.3c0.1,0.2,0.2,0.3,0.5,0.3
		C133.8,25.7,134.2,25.6,134.7,25.6z"/>
	<path fill="#FFFFFF" d="M145.1,21.7c-0.7,0.1-1.2,0.1-1.4,0.1h-5.1c0,0.9,0,1.9,0.1,3c0,0.4,0.2,0.7,0.5,0.8c0.3,0.1,1,0.2,1.9,0.2
		c0.4,0,0.7,0,0.9,0c0.3,0,0.5-0.1,0.6-0.1c0.2-0.1,0.3-0.1,0.4-0.2c0.1-0.1,0.2-0.2,0.2-0.3c0-0.1,0.1-0.3,0.1-0.4
		c0-0.1,0-0.2,0-0.4c0-0.2,0-0.4,0-0.5l1.4,0.3c0,0.4,0,0.8-0.1,1.1c0,0.3-0.1,0.6-0.3,0.8c-0.1,0.2-0.3,0.4-0.4,0.5
		c-0.2,0.1-0.4,0.2-0.7,0.3s-0.6,0.1-0.9,0.2c-0.3,0-0.7,0-1.2,0c-0.6,0-1.2,0-1.6-0.1s-0.8-0.2-1.2-0.3c-0.3-0.1-0.6-0.3-0.8-0.5
		c-0.2-0.2-0.4-0.5-0.5-0.7c-0.1-0.2-0.2-0.5-0.3-1s-0.1-0.8-0.1-1.1c0-0.3,0-0.8,0-1.4c0-0.9,0-1.5,0-2s0.1-1,0.2-1.4
		c0.1-0.5,0.2-0.8,0.4-1c0.2-0.2,0.4-0.4,0.7-0.6c0.3-0.2,0.7-0.3,1.2-0.4c0.4-0.1,1-0.1,1.7-0.1c0.5,0,0.9,0,1.2,0
		c0.3,0,0.7,0.1,1,0.2c0.3,0.1,0.5,0.2,0.7,0.3s0.4,0.3,0.5,0.5c0.1,0.2,0.3,0.4,0.3,0.7c0.1,0.2,0.1,0.5,0.2,0.9
		c0,0.4,0.1,0.8,0.1,1.2C145.1,20.6,145.1,21.1,145.1,21.7z M138.6,20.8h4.6c0-0.8,0-1.5-0.1-2.2c0-0.4-0.2-0.6-0.5-0.8
		c-0.3-0.1-0.8-0.2-1.6-0.2c-0.9,0-1.4,0-1.7,0.1c-0.1,0-0.2,0.1-0.3,0.2c-0.1,0.1-0.1,0.2-0.2,0.3c0,0.1-0.1,0.3-0.1,0.4
		c0,0.1,0,0.3-0.1,0.5c0,0.2,0,0.4,0,0.5c0,0.1,0,0.3,0,0.6S138.6,20.7,138.6,20.8z"/>
	<path fill="#FFFFFF" d="M155.6,26.9H154l-0.2-1.3c-0.4,0.9-1.4,1.4-3,1.4c-0.4,0-0.8,0-1.1-0.1c-0.3-0.1-0.6-0.2-0.9-0.3
		c-0.2-0.1-0.5-0.3-0.6-0.4c-0.2-0.1-0.3-0.4-0.4-0.6c-0.1-0.3-0.2-0.5-0.3-0.8c-0.1-0.2-0.1-0.5-0.1-0.9s0-0.8-0.1-1.1s0-0.7,0-1.2
		c0-0.5,0-0.9,0-1.3c0-0.4,0-0.7,0.1-1.1c0-0.4,0.1-0.7,0.2-0.9c0.1-0.2,0.2-0.5,0.3-0.7s0.3-0.4,0.5-0.6c0.2-0.1,0.4-0.3,0.7-0.4
		c0.3-0.1,0.5-0.2,0.9-0.2c0.3,0,0.7-0.1,1.1-0.1c0.8,0,1.4,0.1,1.9,0.3s0.8,0.6,1,1v-5l1.8-0.1V26.9z M153.8,24.5v-5.4
		c0-0.5-0.2-0.9-0.5-1.1c-0.3-0.2-1-0.3-1.9-0.3c-0.7,0-1.3,0.1-1.6,0.2c-0.3,0.1-0.5,0.3-0.6,0.8c-0.1,0.4-0.1,1-0.1,1.7
		c0,1,0,2.5,0.1,4.4c0,0.4,0.2,0.7,0.5,0.8c0.3,0.1,0.9,0.2,1.8,0.2c0.9,0,1.5-0.1,1.8-0.3C153.6,25.3,153.8,25,153.8,24.5z"/>
	<path fill="#FFFFFF" d="M160.7,25.8c0,0.4-0.1,0.8-0.4,1c-0.3,0.2-0.6,0.4-0.9,0.4c-0.4,0-0.7-0.1-0.9-0.4c-0.3-0.2-0.4-0.6-0.4-1
		c0-0.4,0.1-0.8,0.4-1c0.3-0.2,0.5-0.4,0.9-0.4c0.4,0,0.7,0.1,0.9,0.4C160.6,25.1,160.7,25.4,160.7,25.8z"/>
	<path fill="#FFFFFF" d="M170.9,19.6l-1.5,0.3l-0.2-1.3c0-0.3-0.1-0.5-0.2-0.6c-0.2-0.2-0.6-0.3-1.3-0.3c-0.2,0-0.4,0-0.6,0
		c-0.8,0-1.4,0-1.7,0.1c-0.3,0-0.5,0.3-0.6,0.8s-0.2,1.1-0.2,1.9l0,1.6c0,0.2,0,0.5,0,0.9c0,0.5,0,0.9,0,1.1c0,0.2,0,0.4,0.1,0.7
		s0.1,0.4,0.2,0.5c0.1,0.1,0.2,0.1,0.4,0.2c0.2,0.1,0.4,0.1,0.6,0.1c0.2,0,0.6,0,1,0c0.3,0,0.6,0,0.9,0c0.2,0,0.5-0.1,0.6-0.1
		c0.2,0,0.3-0.1,0.4-0.2c0.1-0.1,0.2-0.2,0.3-0.2c0.1-0.1,0.1-0.2,0.1-0.3c0-0.1,0.1-0.3,0.1-0.4c0-0.1,0-0.3,0-0.5
		c0-0.2,0-0.4,0-0.5l1.5,0.3c0,0.5-0.1,0.9-0.1,1.2c0,0.3-0.1,0.6-0.2,0.8s-0.2,0.5-0.4,0.6s-0.4,0.3-0.7,0.4s-0.6,0.2-1,0.2
		c-0.4,0-0.9,0.1-1.4,0.1c-0.4,0-0.8,0-1.1,0c-0.3,0-0.6-0.1-0.9-0.2c-0.3-0.1-0.5-0.2-0.7-0.2s-0.4-0.2-0.5-0.4
		c-0.2-0.2-0.3-0.3-0.4-0.5c-0.1-0.1-0.2-0.3-0.3-0.6s-0.1-0.5-0.2-0.7c0-0.2-0.1-0.5-0.1-0.9s0-0.8,0-1.1c0-0.3,0-0.7,0-1.3
		c0-0.5,0-0.9,0-1.3s0.1-0.7,0.1-1s0.1-0.6,0.2-0.8c0.1-0.2,0.2-0.4,0.4-0.6c0.2-0.2,0.3-0.3,0.5-0.5c0.2-0.1,0.4-0.2,0.7-0.3
		c0.3-0.1,0.6-0.1,0.9-0.2c0.3,0,0.7,0,1.2,0c0.6,0,1.1,0,1.5,0.1s0.8,0.2,1.1,0.3s0.6,0.3,0.7,0.6s0.3,0.6,0.4,0.9
		C170.8,18.7,170.8,19.1,170.9,19.6z"/>
	<path fill="#FFFFFF" d="M177.1,27c-0.7,0-1.3,0-1.7-0.1s-0.9-0.2-1.2-0.4c-0.3-0.2-0.6-0.4-0.8-0.6c-0.2-0.2-0.3-0.6-0.4-1
		c-0.1-0.5-0.2-0.9-0.2-1.4c0-0.5,0-1.1,0-1.9c0-0.6,0-1.1,0-1.5c0-0.4,0.1-0.8,0.1-1.2s0.1-0.7,0.2-0.9c0.1-0.2,0.2-0.5,0.4-0.7
		c0.2-0.2,0.3-0.4,0.5-0.5s0.5-0.2,0.8-0.3c0.3-0.1,0.6-0.1,1-0.2c0.4,0,0.8,0,1.3,0c0.5,0,0.9,0,1.3,0c0.4,0,0.7,0.1,1,0.2
		s0.6,0.2,0.8,0.3c0.2,0.1,0.4,0.3,0.5,0.5c0.2,0.2,0.3,0.4,0.4,0.7c0.1,0.2,0.2,0.6,0.2,0.9s0.1,0.8,0.1,1.2s0,0.9,0,1.5
		c0,0.8,0,1.4,0,1.9c0,0.5-0.1,0.9-0.2,1.4c-0.1,0.5-0.2,0.8-0.4,1c-0.2,0.2-0.4,0.4-0.8,0.6s-0.7,0.3-1.2,0.4S177.8,27,177.1,27z
		 M177.2,25.8c0.9,0,1.5-0.1,1.8-0.2s0.5-0.3,0.5-0.7c0.1-0.9,0.1-1.9,0.1-3.1c0-0.4,0-0.9,0-1.6c0-0.7,0-1.2,0-1.6
		c0-0.1,0-0.2-0.1-0.3c0-0.1-0.1-0.2-0.2-0.2c-0.1-0.1-0.2-0.1-0.2-0.2c-0.1,0-0.2-0.1-0.3-0.1c-0.1,0-0.3,0-0.4-0.1s-0.2,0-0.4,0
		s-0.3,0-0.4,0c-0.1,0-0.2,0-0.4,0s-0.3,0-0.4,0c-0.1,0-0.2,0-0.4,0c-0.2,0-0.3,0-0.4,0s-0.2,0-0.4,0.1s-0.2,0.1-0.3,0.1
		c-0.1,0-0.2,0.1-0.2,0.2c-0.1,0.1-0.1,0.1-0.2,0.2c0,0.1-0.1,0.2-0.1,0.3c0,0.3,0,0.9,0,1.6c0,0.7,0,1.3,0,1.6c0,1.2,0,2.2,0.1,3.1
		c0,0.3,0.2,0.6,0.5,0.7C175.7,25.7,176.3,25.8,177.2,25.8z"/>
	<path fill="#FFFFFF" d="M197.5,26.9h-1.8v-6.2c0-0.7,0-1.2,0-1.6c0-0.2,0-0.4,0-0.5c0-0.1-0.1-0.3-0.2-0.4
		c-0.1-0.1-0.3-0.3-0.5-0.3c-0.2-0.1-0.6-0.1-0.9-0.1c-0.4,0-0.8,0-1,0.1c-0.3,0.1-0.5,0.1-0.7,0.2c-0.2,0.1-0.3,0.2-0.4,0.4
		c-0.1,0.2-0.2,0.3-0.2,0.5c0,0.2,0,0.4,0,0.7c0,0.1,0,0.4,0,0.7c0,0.3,0,0.6,0,0.8v5.7h-1.8v-6.5c0,0,0-0.1,0-0.1
		c0-0.4,0-0.7,0-0.9c0-0.2,0-0.4-0.1-0.6c0-0.2-0.1-0.4-0.2-0.5c-0.1-0.1-0.2-0.2-0.4-0.3c-0.2-0.1-0.4-0.2-0.6-0.2
		c-0.2,0-0.5,0-0.9,0c-0.2,0-0.4,0-0.6,0c-0.2,0-0.4,0.1-0.6,0.1c-0.2,0.1-0.3,0.2-0.5,0.3c-0.1,0.1-0.2,0.3-0.2,0.4
		c-0.1,0.8-0.1,1.7-0.1,2.7v5.6H184V16.7h1.7l0.2,1.1c0.2-0.5,0.6-0.9,1.1-1.1s1.1-0.3,1.8-0.3c0.7,0,1.3,0.1,1.7,0.3
		c0.4,0.2,0.7,0.6,0.9,1.1c0.5-1,1.5-1.4,2.9-1.4c0.5,0,0.9,0,1.2,0.1c0.3,0.1,0.6,0.1,0.9,0.3c0.3,0.1,0.5,0.3,0.6,0.5
		c0.2,0.2,0.3,0.5,0.4,0.8s0.2,0.7,0.2,1.1s0.1,0.9,0.1,1.5V26.9z"/>
</g>
<g>
</g>
<g>
	<path fill="#1E4375" d="M39.7,18.4c1.2,1.1,1.2,2.9,0.1,4.1L26,37c-1.1,1.2-2.9,1.2-4.1,0.1L7.5,23.3c-1.2-1.1-1.2-2.9-0.1-4.1
		L21.2,4.7c1.1-1.2,2.9-1.2,4.1-0.1L39.7,18.4z"/>
	<polygon fill="#FFFFFF" points="21.5,9.6 25.1,9.9 34.5,18.4 35,22.3 26.5,31.6 22.3,31.9 13.1,23.5 12.9,19.1 	"/>
	<polygon fill="#1E4375" points="15.3,28.6 14.7,28 22.6,19.5 21.4,9.2 22.2,9.1 23.5,19.8 	"/>
	<polygon fill="#1E4375" points="18.6,29.4 18,28.9 25.9,20.3 24.6,9.9 25.4,9.7 26.8,20.6 	"/>
	<rect x="25.6" y="22.6" transform="matrix(0.8 0.6 -0.6 0.8 19.7481 -13.1209)" fill="#1E4375" width="8" height="0.8"/>
	<rect x="23.6" y="24.7" transform="matrix(0.8 0.5999 -0.5999 0.8 20.5865 -11.5359)" fill="#1E4375" width="8" height="0.8"/>
	
		<rect x="21.5" y="26.8" transform="matrix(0.8001 0.5999 -0.5999 0.8001 21.4488 -9.8207)" fill="#1E4375" width="8" height="0.8"/>
	<polygon fill="#1E4375" points="12.1,27.3 11.5,26.7 19.4,18.2 18.1,7.8 18.9,7.7 20.3,18.5 	"/>
</g>
<g>
</g>
<g>
</g>
<g>
</g>
<g>
</g>
<g>
</g>
<g>
</g>
<g>
</g>
</svg>
